<?xml version="1.0" encoding="UTF-8"?>
<svg width="184px" height="374px" viewBox="0 0 184 374" version="1.1" xmlns="http://www.w3.org/2000/svg" xmlns:xlink="http://www.w3.org/1999/xlink">
    <!-- Generator: Sketch 52.6 (67491) - http://www.bohemiancoding.com/sketch -->
    <title>Group 4</title>
    <desc>Created with Sketch.</desc>
    <g id="Page-1" stroke="none" stroke-width="1" fill="none" fill-rule="evenodd">
        <g id="Group-4">
            <g id="Group-3">
                <g id="Group-2">
                    <g id="steak">
                        <path d="M50,14 L0,14 L0,21.2091049 C0,26.9542793 3.91165031,32.2480813 9.93018999,33.9316381 C19.7894255,36.689454 30.2113374,36.689454 40.0701915,33.9316381 C45.8220798,32.3230039 49.647898,27.4177716 49.9767299,21.9719207 L50,14 Z" id="Path" fill="#B2785B"></path>
                        <path d="M0,14 L0,21.2091057 C0,26.9542808 3.94157106,32.2484507 10.0061474,33.9316404 C17.1208868,35.9068083 24.5262276,36.4672595 31.8058719,35.6133611 C32.5031617,32.195564 31.097819,28.483218 31.097819,28.483218 L31.097819,14 L0,14 Z" id="Path" fill="#935B45"></path>
                        <path d="M0,13.7110936 C0,2.64217296 10.2321815,2.84223888 17.61249,4.66333199 C23.3681159,6.08315444 27.5547539,1.9447896 32.387603,0.54774505 C39.6893285,-1.56376636 47.328274,2.6155987 49.449631,9.88250822 C51.5713697,17.149038 47.3713801,24.7511623 40.0696545,26.8622941 C30.2109326,29.7125686 19.7891603,29.7125686 9.93043837,26.8622941 C3.91159789,25.1220625 0,19.6496719 0,13.7110936 Z" id="Path" fill="#FCE6D4"></path>
                        <path d="M17.6931559,4.93047077 C10.2796876,3.12934513 0,2.93184829 0,13.8797788 C0,19.7532432 3.92917274,25.1652559 9.97467278,26.8864067 C16.8371219,28.8399729 23.9708656,29.4388462 31,28.6849041 C25.6308204,20.3003018 16.0297524,23.2237049 13.2581798,15.4526191 C10.1693304,6.79204703 17.6931559,4.93047077 17.6931559,4.93047077 Z" id="Path" fill="#EFD4BF"></path>
                        <path d="M24.9994419,24 C8.77082075,24 4,17.3173779 4,13.240719 C4,12.4317451 4,7.29801223 10.5157843,7.58301662 C12.2837785,7.66047935 18.8260481,8.7698041 19.959929,8.7698041 C23.7987719,8.7698041 26.9140653,7.29362755 29.6627858,5.99064601 C31.0530757,5.33148202 34.2370774,4 36.3044715,4 C40.5870403,4 44.4136001,6.73859975 45.6104317,10.659237 C46.3332136,13.0273311 46.0437937,15.5211196 44.7959107,17.6820374 C43.5480277,19.8425898 38.0494351,24 24.9994419,24 Z" id="Path" fill="#F2B4B1"></path>
                        <path d="M41,12.999814 C41,15.2090829 39.2090829,17 36.9998141,17 C34.7909171,17 33,15.2090829 33,12.999814 C33,10.7909171 34.7909171,9 36.9998141,9 C39.2090829,9 41,10.7909171 41,12.999814 Z" id="Path" fill="#FFFFFF"></path>
                        <path d="M12.9984694,15.4502478 C11.8659008,12.2133065 12.1778114,9.92048882 13.017396,8.31544083 C11.9082964,8.15739365 10.9521239,8.03602255 10.4255855,8.01182395 C4,7.71690347 4,13.0292532 4,13.8663736 C4,18.0848708 8.70477772,25 24.7087441,25 C25.5010122,25 26.2637547,24.9837415 27,24.952359 C21.7565708,21.0730203 15.1988776,21.7399943 12.9984694,15.4502478 Z" id="Path" fill="#EAA2A2"></path>
                    </g>
                    <g id="steak" transform="translate(67.000000, 0.000000)">
                        <path d="M50,14 L0,14 L0,21.2091049 C0,26.9542793 3.91165031,32.2480813 9.93018999,33.9316381 C19.7894255,36.689454 30.2113374,36.689454 40.0701915,33.9316381 C45.8220798,32.3230039 49.647898,27.4177716 49.9767299,21.9719207 L50,14 Z" id="Path" fill="#B2785B"></path>
                        <path d="M0,14 L0,21.2091057 C0,26.9542808 3.94157106,32.2484507 10.0061474,33.9316404 C17.1208868,35.9068083 24.5262276,36.4672595 31.8058719,35.6133611 C32.5031617,32.195564 31.097819,28.483218 31.097819,28.483218 L31.097819,14 L0,14 Z" id="Path" fill="#935B45"></path>
                        <path d="M0,13.7110936 C0,2.64217296 10.2321815,2.84223888 17.61249,4.66333199 C23.3681159,6.08315444 27.5547539,1.9447896 32.387603,0.54774505 C39.6893285,-1.56376636 47.328274,2.6155987 49.449631,9.88250822 C51.5713697,17.149038 47.3713801,24.7511623 40.0696545,26.8622941 C30.2109326,29.7125686 19.7891603,29.7125686 9.93043837,26.8622941 C3.91159789,25.1220625 0,19.6496719 0,13.7110936 Z" id="Path" fill="#FCE6D4"></path>
                        <path d="M17.6931559,4.93047077 C10.2796876,3.12934513 0,2.93184829 0,13.8797788 C0,19.7532432 3.92917274,25.1652559 9.97467278,26.8864067 C16.8371219,28.8399729 23.9708656,29.4388462 31,28.6849041 C25.6308204,20.3003018 16.0297524,23.2237049 13.2581798,15.4526191 C10.1693304,6.79204703 17.6931559,4.93047077 17.6931559,4.93047077 Z" id="Path" fill="#EFD4BF"></path>
                        <path d="M24.9994419,24 C8.77082075,24 4,17.3173779 4,13.240719 C4,12.4317451 4,7.29801223 10.5157843,7.58301662 C12.2837785,7.66047935 18.8260481,8.7698041 19.959929,8.7698041 C23.7987719,8.7698041 26.9140653,7.29362755 29.6627858,5.99064601 C31.0530757,5.33148202 34.2370774,4 36.3044715,4 C40.5870403,4 44.4136001,6.73859975 45.6104317,10.659237 C46.3332136,13.0273311 46.0437937,15.5211196 44.7959107,17.6820374 C43.5480277,19.8425898 38.0494351,24 24.9994419,24 Z" id="Path" fill="#F2B4B1"></path>
                        <path d="M41,12.999814 C41,15.2090829 39.2090829,17 36.9998141,17 C34.7909171,17 33,15.2090829 33,12.999814 C33,10.7909171 34.7909171,9 36.9998141,9 C39.2090829,9 41,10.7909171 41,12.999814 Z" id="Path" fill="#FFFFFF"></path>
                        <path d="M12.9984694,15.4502478 C11.8659008,12.2133065 12.1778114,9.92048882 13.017396,8.31544083 C11.9082964,8.15739365 10.9521239,8.03602255 10.4255855,8.01182395 C4,7.71690347 4,13.0292532 4,13.8663736 C4,18.0848708 8.70477772,25 24.7087441,25 C25.5010122,25 26.2637547,24.9837415 27,24.952359 C21.7565708,21.0730203 15.1988776,21.7399943 12.9984694,15.4502478 Z" id="Path" fill="#EAA2A2"></path>
                    </g>
                    <g id="steak" transform="translate(134.000000, 0.000000)">
                        <path d="M50,14 L0,14 L0,21.2091049 C0,26.9542793 3.91165031,32.2480813 9.93018999,33.9316381 C19.7894255,36.689454 30.2113374,36.689454 40.0701915,33.9316381 C45.8220798,32.3230039 49.647898,27.4177716 49.9767299,21.9719207 L50,14 Z" id="Path" fill="#B2785B"></path>
                        <path d="M0,14 L0,21.2091057 C0,26.9542808 3.94157106,32.2484507 10.0061474,33.9316404 C17.1208868,35.9068083 24.5262276,36.4672595 31.8058719,35.6133611 C32.5031617,32.195564 31.097819,28.483218 31.097819,28.483218 L31.097819,14 L0,14 Z" id="Path" fill="#935B45"></path>
                        <path d="M0,13.7110936 C0,2.64217296 10.2321815,2.84223888 17.61249,4.66333199 C23.3681159,6.08315444 27.5547539,1.9447896 32.387603,0.54774505 C39.6893285,-1.56376636 47.328274,2.6155987 49.449631,9.88250822 C51.5713697,17.149038 47.3713801,24.7511623 40.0696545,26.8622941 C30.2109326,29.7125686 19.7891603,29.7125686 9.93043837,26.8622941 C3.91159789,25.1220625 0,19.6496719 0,13.7110936 Z" id="Path" fill="#FCE6D4"></path>
                        <path d="M17.6931559,4.93047077 C10.2796876,3.12934513 0,2.93184829 0,13.8797788 C0,19.7532432 3.92917274,25.1652559 9.97467278,26.8864067 C16.8371219,28.8399729 23.9708656,29.4388462 31,28.6849041 C25.6308204,20.3003018 16.0297524,23.2237049 13.2581798,15.4526191 C10.1693304,6.79204703 17.6931559,4.93047077 17.6931559,4.93047077 Z" id="Path" fill="#EFD4BF"></path>
                        <path d="M24.9994419,24 C8.77082075,24 4,17.3173779 4,13.240719 C4,12.4317451 4,7.29801223 10.5157843,7.58301662 C12.2837785,7.66047935 18.8260481,8.7698041 19.959929,8.7698041 C23.7987719,8.7698041 26.9140653,7.29362755 29.6627858,5.99064601 C31.0530757,5.33148202 34.2370774,4 36.3044715,4 C40.5870403,4 44.4136001,6.73859975 45.6104317,10.659237 C46.3332136,13.0273311 46.0437937,15.5211196 44.7959107,17.6820374 C43.5480277,19.8425898 38.0494351,24 24.9994419,24 Z" id="Path" fill="#F2B4B1"></path>
                        <path d="M41,12.999814 C41,15.2090829 39.2090829,17 36.9998141,17 C34.7909171,17 33,15.2090829 33,12.999814 C33,10.7909171 34.7909171,9 36.9998141,9 C39.2090829,9 41,10.7909171 41,12.999814 Z" id="Path" fill="#FFFFFF"></path>
                        <path d="M12.9984694,15.4502478 C11.8659008,12.2133065 12.1778114,9.92048882 13.017396,8.31544083 C11.9082964,8.15739365 10.9521239,8.03602255 10.4255855,8.01182395 C4,7.71690347 4,13.0292532 4,13.8663736 C4,18.0848708 8.70477772,25 24.7087441,25 C25.5010122,25 26.2637547,24.9837415 27,24.952359 C21.7565708,21.0730203 15.1988776,21.7399943 12.9984694,15.4502478 Z" id="Path" fill="#EAA2A2"></path>
                    </g>
                </g>
                <g id="Group-2" transform="translate(0.000000, 47.000000)">
                    <g id="steak">
                        <path d="M50,14 L0,14 L0,21.2091049 C0,26.9542793 3.91165031,32.2480813 9.93018999,33.9316381 C19.7894255,36.689454 30.2113374,36.689454 40.0701915,33.9316381 C45.8220798,32.3230039 49.647898,27.4177716 49.9767299,21.9719207 L50,14 Z" id="Path" fill="#B2785B"></path>
                        <path d="M0,14 L0,21.2091057 C0,26.9542808 3.94157106,32.2484507 10.0061474,33.9316404 C17.1208868,35.9068083 24.5262276,36.4672595 31.8058719,35.6133611 C32.5031617,32.195564 31.097819,28.483218 31.097819,28.483218 L31.097819,14 L0,14 Z" id="Path" fill="#935B45"></path>
                        <path d="M0,13.7110936 C0,2.64217296 10.2321815,2.84223888 17.61249,4.66333199 C23.3681159,6.08315444 27.5547539,1.9447896 32.387603,0.54774505 C39.6893285,-1.56376636 47.328274,2.6155987 49.449631,9.88250822 C51.5713697,17.149038 47.3713801,24.7511623 40.0696545,26.8622941 C30.2109326,29.7125686 19.7891603,29.7125686 9.93043837,26.8622941 C3.91159789,25.1220625 0,19.6496719 0,13.7110936 Z" id="Path" fill="#FCE6D4"></path>
                        <path d="M17.6931559,4.93047077 C10.2796876,3.12934513 0,2.93184829 0,13.8797788 C0,19.7532432 3.92917274,25.1652559 9.97467278,26.8864067 C16.8371219,28.8399729 23.9708656,29.4388462 31,28.6849041 C25.6308204,20.3003018 16.0297524,23.2237049 13.2581798,15.4526191 C10.1693304,6.79204703 17.6931559,4.93047077 17.6931559,4.93047077 Z" id="Path" fill="#EFD4BF"></path>
                        <path d="M24.9994419,24 C8.77082075,24 4,17.3173779 4,13.240719 C4,12.4317451 4,7.29801223 10.5157843,7.58301662 C12.2837785,7.66047935 18.8260481,8.7698041 19.959929,8.7698041 C23.7987719,8.7698041 26.9140653,7.29362755 29.6627858,5.99064601 C31.0530757,5.33148202 34.2370774,4 36.3044715,4 C40.5870403,4 44.4136001,6.73859975 45.6104317,10.659237 C46.3332136,13.0273311 46.0437937,15.5211196 44.7959107,17.6820374 C43.5480277,19.8425898 38.0494351,24 24.9994419,24 Z" id="Path" fill="#F2B4B1"></path>
                        <path d="M41,12.999814 C41,15.2090829 39.2090829,17 36.9998141,17 C34.7909171,17 33,15.2090829 33,12.999814 C33,10.7909171 34.7909171,9 36.9998141,9 C39.2090829,9 41,10.7909171 41,12.999814 Z" id="Path" fill="#FFFFFF"></path>
                        <path d="M12.9984694,15.4502478 C11.8659008,12.2133065 12.1778114,9.92048882 13.017396,8.31544083 C11.9082964,8.15739365 10.9521239,8.03602255 10.4255855,8.01182395 C4,7.71690347 4,13.0292532 4,13.8663736 C4,18.0848708 8.70477772,25 24.7087441,25 C25.5010122,25 26.2637547,24.9837415 27,24.952359 C21.7565708,21.0730203 15.1988776,21.7399943 12.9984694,15.4502478 Z" id="Path" fill="#EAA2A2"></path>
                    </g>
                    <g id="steak" transform="translate(67.000000, 0.000000)">
                        <path d="M50,14 L0,14 L0,21.2091049 C0,26.9542793 3.91165031,32.2480813 9.93018999,33.9316381 C19.7894255,36.689454 30.2113374,36.689454 40.0701915,33.9316381 C45.8220798,32.3230039 49.647898,27.4177716 49.9767299,21.9719207 L50,14 Z" id="Path" fill="#B2785B"></path>
                        <path d="M0,14 L0,21.2091057 C0,26.9542808 3.94157106,32.2484507 10.0061474,33.9316404 C17.1208868,35.9068083 24.5262276,36.4672595 31.8058719,35.6133611 C32.5031617,32.195564 31.097819,28.483218 31.097819,28.483218 L31.097819,14 L0,14 Z" id="Path" fill="#935B45"></path>
                        <path d="M0,13.7110936 C0,2.64217296 10.2321815,2.84223888 17.61249,4.66333199 C23.3681159,6.08315444 27.5547539,1.9447896 32.387603,0.54774505 C39.6893285,-1.56376636 47.328274,2.6155987 49.449631,9.88250822 C51.5713697,17.149038 47.3713801,24.7511623 40.0696545,26.8622941 C30.2109326,29.7125686 19.7891603,29.7125686 9.93043837,26.8622941 C3.91159789,25.1220625 0,19.6496719 0,13.7110936 Z" id="Path" fill="#FCE6D4"></path>
                        <path d="M17.6931559,4.93047077 C10.2796876,3.12934513 0,2.93184829 0,13.8797788 C0,19.7532432 3.92917274,25.1652559 9.97467278,26.8864067 C16.8371219,28.8399729 23.9708656,29.4388462 31,28.6849041 C25.6308204,20.3003018 16.0297524,23.2237049 13.2581798,15.4526191 C10.1693304,6.79204703 17.6931559,4.93047077 17.6931559,4.93047077 Z" id="Path" fill="#EFD4BF"></path>
                        <path d="M24.9994419,24 C8.77082075,24 4,17.3173779 4,13.240719 C4,12.4317451 4,7.29801223 10.5157843,7.58301662 C12.2837785,7.66047935 18.8260481,8.7698041 19.959929,8.7698041 C23.7987719,8.7698041 26.9140653,7.29362755 29.6627858,5.99064601 C31.0530757,5.33148202 34.2370774,4 36.3044715,4 C40.5870403,4 44.4136001,6.73859975 45.6104317,10.659237 C46.3332136,13.0273311 46.0437937,15.5211196 44.7959107,17.6820374 C43.5480277,19.8425898 38.0494351,24 24.9994419,24 Z" id="Path" fill="#F2B4B1"></path>
                        <path d="M41,12.999814 C41,15.2090829 39.2090829,17 36.9998141,17 C34.7909171,17 33,15.2090829 33,12.999814 C33,10.7909171 34.7909171,9 36.9998141,9 C39.2090829,9 41,10.7909171 41,12.999814 Z" id="Path" fill="#FFFFFF"></path>
                        <path d="M12.9984694,15.4502478 C11.8659008,12.2133065 12.1778114,9.92048882 13.017396,8.31544083 C11.9082964,8.15739365 10.9521239,8.03602255 10.4255855,8.01182395 C4,7.71690347 4,13.0292532 4,13.8663736 C4,18.0848708 8.70477772,25 24.7087441,25 C25.5010122,25 26.2637547,24.9837415 27,24.952359 C21.7565708,21.0730203 15.1988776,21.7399943 12.9984694,15.4502478 Z" id="Path" fill="#EAA2A2"></path>
                    </g>
                    <g id="steak" transform="translate(134.000000, 0.000000)">
                        <path d="M50,14 L0,14 L0,21.2091049 C0,26.9542793 3.91165031,32.2480813 9.93018999,33.9316381 C19.7894255,36.689454 30.2113374,36.689454 40.0701915,33.9316381 C45.8220798,32.3230039 49.647898,27.4177716 49.9767299,21.9719207 L50,14 Z" id="Path" fill="#B2785B"></path>
                        <path d="M0,14 L0,21.2091057 C0,26.9542808 3.94157106,32.2484507 10.0061474,33.9316404 C17.1208868,35.9068083 24.5262276,36.4672595 31.8058719,35.6133611 C32.5031617,32.195564 31.097819,28.483218 31.097819,28.483218 L31.097819,14 L0,14 Z" id="Path" fill="#935B45"></path>
                        <path d="M0,13.7110936 C0,2.64217296 10.2321815,2.84223888 17.61249,4.66333199 C23.3681159,6.08315444 27.5547539,1.9447896 32.387603,0.54774505 C39.6893285,-1.56376636 47.328274,2.6155987 49.449631,9.88250822 C51.5713697,17.149038 47.3713801,24.7511623 40.0696545,26.8622941 C30.2109326,29.7125686 19.7891603,29.7125686 9.93043837,26.8622941 C3.91159789,25.1220625 0,19.6496719 0,13.7110936 Z" id="Path" fill="#FCE6D4"></path>
                        <path d="M17.6931559,4.93047077 C10.2796876,3.12934513 0,2.93184829 0,13.8797788 C0,19.7532432 3.92917274,25.1652559 9.97467278,26.8864067 C16.8371219,28.8399729 23.9708656,29.4388462 31,28.6849041 C25.6308204,20.3003018 16.0297524,23.2237049 13.2581798,15.4526191 C10.1693304,6.79204703 17.6931559,4.93047077 17.6931559,4.93047077 Z" id="Path" fill="#EFD4BF"></path>
                        <path d="M24.9994419,24 C8.77082075,24 4,17.3173779 4,13.240719 C4,12.4317451 4,7.29801223 10.5157843,7.58301662 C12.2837785,7.66047935 18.8260481,8.7698041 19.959929,8.7698041 C23.7987719,8.7698041 26.9140653,7.29362755 29.6627858,5.99064601 C31.0530757,5.33148202 34.2370774,4 36.3044715,4 C40.5870403,4 44.4136001,6.73859975 45.6104317,10.659237 C46.3332136,13.0273311 46.0437937,15.5211196 44.7959107,17.6820374 C43.5480277,19.8425898 38.0494351,24 24.9994419,24 Z" id="Path" fill="#F2B4B1"></path>
                        <path d="M41,12.999814 C41,15.2090829 39.2090829,17 36.9998141,17 C34.7909171,17 33,15.2090829 33,12.999814 C33,10.7909171 34.7909171,9 36.9998141,9 C39.2090829,9 41,10.7909171 41,12.999814 Z" id="Path" fill="#FFFFFF"></path>
                        <path d="M12.9984694,15.4502478 C11.8659008,12.2133065 12.1778114,9.92048882 13.017396,8.31544083 C11.9082964,8.15739365 10.9521239,8.03602255 10.4255855,8.01182395 C4,7.71690347 4,13.0292532 4,13.8663736 C4,18.0848708 8.70477772,25 24.7087441,25 C25.5010122,25 26.2637547,24.9837415 27,24.952359 C21.7565708,21.0730203 15.1988776,21.7399943 12.9984694,15.4502478 Z" id="Path" fill="#EAA2A2"></path>
                    </g>
                </g>
                <g id="Group-2" transform="translate(0.000000, 94.000000)">
                    <g id="steak">
                        <path d="M50,14 L0,14 L0,21.2091049 C0,26.9542793 3.91165031,32.2480813 9.93018999,33.9316381 C19.7894255,36.689454 30.2113374,36.689454 40.0701915,33.9316381 C45.8220798,32.3230039 49.647898,27.4177716 49.9767299,21.9719207 L50,14 Z" id="Path" fill="#B2785B"></path>
                        <path d="M0,14 L0,21.2091057 C0,26.9542808 3.94157106,32.2484507 10.0061474,33.9316404 C17.1208868,35.9068083 24.5262276,36.4672595 31.8058719,35.6133611 C32.5031617,32.195564 31.097819,28.483218 31.097819,28.483218 L31.097819,14 L0,14 Z" id="Path" fill="#935B45"></path>
                        <path d="M0,13.7110936 C0,2.64217296 10.2321815,2.84223888 17.61249,4.66333199 C23.3681159,6.08315444 27.5547539,1.9447896 32.387603,0.54774505 C39.6893285,-1.56376636 47.328274,2.6155987 49.449631,9.88250822 C51.5713697,17.149038 47.3713801,24.7511623 40.0696545,26.8622941 C30.2109326,29.7125686 19.7891603,29.7125686 9.93043837,26.8622941 C3.91159789,25.1220625 0,19.6496719 0,13.7110936 Z" id="Path" fill="#FCE6D4"></path>
                        <path d="M17.6931559,4.93047077 C10.2796876,3.12934513 0,2.93184829 0,13.8797788 C0,19.7532432 3.92917274,25.1652559 9.97467278,26.8864067 C16.8371219,28.8399729 23.9708656,29.4388462 31,28.6849041 C25.6308204,20.3003018 16.0297524,23.2237049 13.2581798,15.4526191 C10.1693304,6.79204703 17.6931559,4.93047077 17.6931559,4.93047077 Z" id="Path" fill="#EFD4BF"></path>
                        <path d="M24.9994419,24 C8.77082075,24 4,17.3173779 4,13.240719 C4,12.4317451 4,7.29801223 10.5157843,7.58301662 C12.2837785,7.66047935 18.8260481,8.7698041 19.959929,8.7698041 C23.7987719,8.7698041 26.9140653,7.29362755 29.6627858,5.99064601 C31.0530757,5.33148202 34.2370774,4 36.3044715,4 C40.5870403,4 44.4136001,6.73859975 45.6104317,10.659237 C46.3332136,13.0273311 46.0437937,15.5211196 44.7959107,17.6820374 C43.5480277,19.8425898 38.0494351,24 24.9994419,24 Z" id="Path" fill="#F2B4B1"></path>
                        <path d="M41,12.999814 C41,15.2090829 39.2090829,17 36.9998141,17 C34.7909171,17 33,15.2090829 33,12.999814 C33,10.7909171 34.7909171,9 36.9998141,9 C39.2090829,9 41,10.7909171 41,12.999814 Z" id="Path" fill="#FFFFFF"></path>
                        <path d="M12.9984694,15.4502478 C11.8659008,12.2133065 12.1778114,9.92048882 13.017396,8.31544083 C11.9082964,8.15739365 10.9521239,8.03602255 10.4255855,8.01182395 C4,7.71690347 4,13.0292532 4,13.8663736 C4,18.0848708 8.70477772,25 24.7087441,25 C25.5010122,25 26.2637547,24.9837415 27,24.952359 C21.7565708,21.0730203 15.1988776,21.7399943 12.9984694,15.4502478 Z" id="Path" fill="#EAA2A2"></path>
                    </g>
                    <g id="steak" transform="translate(67.000000, 0.000000)">
                        <path d="M50,14 L0,14 L0,21.2091049 C0,26.9542793 3.91165031,32.2480813 9.93018999,33.9316381 C19.7894255,36.689454 30.2113374,36.689454 40.0701915,33.9316381 C45.8220798,32.3230039 49.647898,27.4177716 49.9767299,21.9719207 L50,14 Z" id="Path" fill="#B2785B"></path>
                        <path d="M0,14 L0,21.2091057 C0,26.9542808 3.94157106,32.2484507 10.0061474,33.9316404 C17.1208868,35.9068083 24.5262276,36.4672595 31.8058719,35.6133611 C32.5031617,32.195564 31.097819,28.483218 31.097819,28.483218 L31.097819,14 L0,14 Z" id="Path" fill="#935B45"></path>
                        <path d="M0,13.7110936 C0,2.64217296 10.2321815,2.84223888 17.61249,4.66333199 C23.3681159,6.08315444 27.5547539,1.9447896 32.387603,0.54774505 C39.6893285,-1.56376636 47.328274,2.6155987 49.449631,9.88250822 C51.5713697,17.149038 47.3713801,24.7511623 40.0696545,26.8622941 C30.2109326,29.7125686 19.7891603,29.7125686 9.93043837,26.8622941 C3.91159789,25.1220625 0,19.6496719 0,13.7110936 Z" id="Path" fill="#FCE6D4"></path>
                        <path d="M17.6931559,4.93047077 C10.2796876,3.12934513 0,2.93184829 0,13.8797788 C0,19.7532432 3.92917274,25.1652559 9.97467278,26.8864067 C16.8371219,28.8399729 23.9708656,29.4388462 31,28.6849041 C25.6308204,20.3003018 16.0297524,23.2237049 13.2581798,15.4526191 C10.1693304,6.79204703 17.6931559,4.93047077 17.6931559,4.93047077 Z" id="Path" fill="#EFD4BF"></path>
                        <path d="M24.9994419,24 C8.77082075,24 4,17.3173779 4,13.240719 C4,12.4317451 4,7.29801223 10.5157843,7.58301662 C12.2837785,7.66047935 18.8260481,8.7698041 19.959929,8.7698041 C23.7987719,8.7698041 26.9140653,7.29362755 29.6627858,5.99064601 C31.0530757,5.33148202 34.2370774,4 36.3044715,4 C40.5870403,4 44.4136001,6.73859975 45.6104317,10.659237 C46.3332136,13.0273311 46.0437937,15.5211196 44.7959107,17.6820374 C43.5480277,19.8425898 38.0494351,24 24.9994419,24 Z" id="Path" fill="#F2B4B1"></path>
                        <path d="M41,12.999814 C41,15.2090829 39.2090829,17 36.9998141,17 C34.7909171,17 33,15.2090829 33,12.999814 C33,10.7909171 34.7909171,9 36.9998141,9 C39.2090829,9 41,10.7909171 41,12.999814 Z" id="Path" fill="#FFFFFF"></path>
                        <path d="M12.9984694,15.4502478 C11.8659008,12.2133065 12.1778114,9.92048882 13.017396,8.31544083 C11.9082964,8.15739365 10.9521239,8.03602255 10.4255855,8.01182395 C4,7.71690347 4,13.0292532 4,13.8663736 C4,18.0848708 8.70477772,25 24.7087441,25 C25.5010122,25 26.2637547,24.9837415 27,24.952359 C21.7565708,21.0730203 15.1988776,21.7399943 12.9984694,15.4502478 Z" id="Path" fill="#EAA2A2"></path>
                    </g>
                    <g id="steak" transform="translate(134.000000, 0.000000)">
                        <path d="M50,14 L0,14 L0,21.2091049 C0,26.9542793 3.91165031,32.2480813 9.93018999,33.9316381 C19.7894255,36.689454 30.2113374,36.689454 40.0701915,33.9316381 C45.8220798,32.3230039 49.647898,27.4177716 49.9767299,21.9719207 L50,14 Z" id="Path" fill="#B2785B"></path>
                        <path d="M0,14 L0,21.2091057 C0,26.9542808 3.94157106,32.2484507 10.0061474,33.9316404 C17.1208868,35.9068083 24.5262276,36.4672595 31.8058719,35.6133611 C32.5031617,32.195564 31.097819,28.483218 31.097819,28.483218 L31.097819,14 L0,14 Z" id="Path" fill="#935B45"></path>
                        <path d="M0,13.7110936 C0,2.64217296 10.2321815,2.84223888 17.61249,4.66333199 C23.3681159,6.08315444 27.5547539,1.9447896 32.387603,0.54774505 C39.6893285,-1.56376636 47.328274,2.6155987 49.449631,9.88250822 C51.5713697,17.149038 47.3713801,24.7511623 40.0696545,26.8622941 C30.2109326,29.7125686 19.7891603,29.7125686 9.93043837,26.8622941 C3.91159789,25.1220625 0,19.6496719 0,13.7110936 Z" id="Path" fill="#FCE6D4"></path>
                        <path d="M17.6931559,4.93047077 C10.2796876,3.12934513 0,2.93184829 0,13.8797788 C0,19.7532432 3.92917274,25.1652559 9.97467278,26.8864067 C16.8371219,28.8399729 23.9708656,29.4388462 31,28.6849041 C25.6308204,20.3003018 16.0297524,23.2237049 13.2581798,15.4526191 C10.1693304,6.79204703 17.6931559,4.93047077 17.6931559,4.93047077 Z" id="Path" fill="#EFD4BF"></path>
                        <path d="M24.9994419,24 C8.77082075,24 4,17.3173779 4,13.240719 C4,12.4317451 4,7.29801223 10.5157843,7.58301662 C12.2837785,7.66047935 18.8260481,8.7698041 19.959929,8.7698041 C23.7987719,8.7698041 26.9140653,7.29362755 29.6627858,5.99064601 C31.0530757,5.33148202 34.2370774,4 36.3044715,4 C40.5870403,4 44.4136001,6.73859975 45.6104317,10.659237 C46.3332136,13.0273311 46.0437937,15.5211196 44.7959107,17.6820374 C43.5480277,19.8425898 38.0494351,24 24.9994419,24 Z" id="Path" fill="#F2B4B1"></path>
                        <path d="M41,12.999814 C41,15.2090829 39.2090829,17 36.9998141,17 C34.7909171,17 33,15.2090829 33,12.999814 C33,10.7909171 34.7909171,9 36.9998141,9 C39.2090829,9 41,10.7909171 41,12.999814 Z" id="Path" fill="#FFFFFF"></path>
                        <path d="M12.9984694,15.4502478 C11.8659008,12.2133065 12.1778114,9.92048882 13.017396,8.31544083 C11.9082964,8.15739365 10.9521239,8.03602255 10.4255855,8.01182395 C4,7.71690347 4,13.0292532 4,13.8663736 C4,18.0848708 8.70477772,25 24.7087441,25 C25.5010122,25 26.2637547,24.9837415 27,24.952359 C21.7565708,21.0730203 15.1988776,21.7399943 12.9984694,15.4502478 Z" id="Path" fill="#EAA2A2"></path>
                    </g>
                </g>
            </g>
            <g id="Group-3" transform="translate(0.000000, 141.000000)">
                <g id="Group-2">
                    <g id="steak">
                        <path d="M50,14 L0,14 L0,21.2091049 C0,26.9542793 3.91165031,32.2480813 9.93018999,33.9316381 C19.7894255,36.689454 30.2113374,36.689454 40.0701915,33.9316381 C45.8220798,32.3230039 49.647898,27.4177716 49.9767299,21.9719207 L50,14 Z" id="Path" fill="#B2785B"></path>
                        <path d="M0,14 L0,21.2091057 C0,26.9542808 3.94157106,32.2484507 10.0061474,33.9316404 C17.1208868,35.9068083 24.5262276,36.4672595 31.8058719,35.6133611 C32.5031617,32.195564 31.097819,28.483218 31.097819,28.483218 L31.097819,14 L0,14 Z" id="Path" fill="#935B45"></path>
                        <path d="M0,13.7110936 C0,2.64217296 10.2321815,2.84223888 17.61249,4.66333199 C23.3681159,6.08315444 27.5547539,1.9447896 32.387603,0.54774505 C39.6893285,-1.56376636 47.328274,2.6155987 49.449631,9.88250822 C51.5713697,17.149038 47.3713801,24.7511623 40.0696545,26.8622941 C30.2109326,29.7125686 19.7891603,29.7125686 9.93043837,26.8622941 C3.91159789,25.1220625 0,19.6496719 0,13.7110936 Z" id="Path" fill="#FCE6D4"></path>
                        <path d="M17.6931559,4.93047077 C10.2796876,3.12934513 0,2.93184829 0,13.8797788 C0,19.7532432 3.92917274,25.1652559 9.97467278,26.8864067 C16.8371219,28.8399729 23.9708656,29.4388462 31,28.6849041 C25.6308204,20.3003018 16.0297524,23.2237049 13.2581798,15.4526191 C10.1693304,6.79204703 17.6931559,4.93047077 17.6931559,4.93047077 Z" id="Path" fill="#EFD4BF"></path>
                        <path d="M24.9994419,24 C8.77082075,24 4,17.3173779 4,13.240719 C4,12.4317451 4,7.29801223 10.5157843,7.58301662 C12.2837785,7.66047935 18.8260481,8.7698041 19.959929,8.7698041 C23.7987719,8.7698041 26.9140653,7.29362755 29.6627858,5.99064601 C31.0530757,5.33148202 34.2370774,4 36.3044715,4 C40.5870403,4 44.4136001,6.73859975 45.6104317,10.659237 C46.3332136,13.0273311 46.0437937,15.5211196 44.7959107,17.6820374 C43.5480277,19.8425898 38.0494351,24 24.9994419,24 Z" id="Path" fill="#F2B4B1"></path>
                        <path d="M41,12.999814 C41,15.2090829 39.2090829,17 36.9998141,17 C34.7909171,17 33,15.2090829 33,12.999814 C33,10.7909171 34.7909171,9 36.9998141,9 C39.2090829,9 41,10.7909171 41,12.999814 Z" id="Path" fill="#FFFFFF"></path>
                        <path d="M12.9984694,15.4502478 C11.8659008,12.2133065 12.1778114,9.92048882 13.017396,8.31544083 C11.9082964,8.15739365 10.9521239,8.03602255 10.4255855,8.01182395 C4,7.71690347 4,13.0292532 4,13.8663736 C4,18.0848708 8.70477772,25 24.7087441,25 C25.5010122,25 26.2637547,24.9837415 27,24.952359 C21.7565708,21.0730203 15.1988776,21.7399943 12.9984694,15.4502478 Z" id="Path" fill="#EAA2A2"></path>
                    </g>
                    <g id="steak" transform="translate(67.000000, 0.000000)">
                        <path d="M50,14 L0,14 L0,21.2091049 C0,26.9542793 3.91165031,32.2480813 9.93018999,33.9316381 C19.7894255,36.689454 30.2113374,36.689454 40.0701915,33.9316381 C45.8220798,32.3230039 49.647898,27.4177716 49.9767299,21.9719207 L50,14 Z" id="Path" fill="#B2785B"></path>
                        <path d="M0,14 L0,21.2091057 C0,26.9542808 3.94157106,32.2484507 10.0061474,33.9316404 C17.1208868,35.9068083 24.5262276,36.4672595 31.8058719,35.6133611 C32.5031617,32.195564 31.097819,28.483218 31.097819,28.483218 L31.097819,14 L0,14 Z" id="Path" fill="#935B45"></path>
                        <path d="M0,13.7110936 C0,2.64217296 10.2321815,2.84223888 17.61249,4.66333199 C23.3681159,6.08315444 27.5547539,1.9447896 32.387603,0.54774505 C39.6893285,-1.56376636 47.328274,2.6155987 49.449631,9.88250822 C51.5713697,17.149038 47.3713801,24.7511623 40.0696545,26.8622941 C30.2109326,29.7125686 19.7891603,29.7125686 9.93043837,26.8622941 C3.91159789,25.1220625 0,19.6496719 0,13.7110936 Z" id="Path" fill="#FCE6D4"></path>
                        <path d="M17.6931559,4.93047077 C10.2796876,3.12934513 0,2.93184829 0,13.8797788 C0,19.7532432 3.92917274,25.1652559 9.97467278,26.8864067 C16.8371219,28.8399729 23.9708656,29.4388462 31,28.6849041 C25.6308204,20.3003018 16.0297524,23.2237049 13.2581798,15.4526191 C10.1693304,6.79204703 17.6931559,4.93047077 17.6931559,4.93047077 Z" id="Path" fill="#EFD4BF"></path>
                        <path d="M24.9994419,24 C8.77082075,24 4,17.3173779 4,13.240719 C4,12.4317451 4,7.29801223 10.5157843,7.58301662 C12.2837785,7.66047935 18.8260481,8.7698041 19.959929,8.7698041 C23.7987719,8.7698041 26.9140653,7.29362755 29.6627858,5.99064601 C31.0530757,5.33148202 34.2370774,4 36.3044715,4 C40.5870403,4 44.4136001,6.73859975 45.6104317,10.659237 C46.3332136,13.0273311 46.0437937,15.5211196 44.7959107,17.6820374 C43.5480277,19.8425898 38.0494351,24 24.9994419,24 Z" id="Path" fill="#F2B4B1"></path>
                        <path d="M41,12.999814 C41,15.2090829 39.2090829,17 36.9998141,17 C34.7909171,17 33,15.2090829 33,12.999814 C33,10.7909171 34.7909171,9 36.9998141,9 C39.2090829,9 41,10.7909171 41,12.999814 Z" id="Path" fill="#FFFFFF"></path>
                        <path d="M12.9984694,15.4502478 C11.8659008,12.2133065 12.1778114,9.92048882 13.017396,8.31544083 C11.9082964,8.15739365 10.9521239,8.03602255 10.4255855,8.01182395 C4,7.71690347 4,13.0292532 4,13.8663736 C4,18.0848708 8.70477772,25 24.7087441,25 C25.5010122,25 26.2637547,24.9837415 27,24.952359 C21.7565708,21.0730203 15.1988776,21.7399943 12.9984694,15.4502478 Z" id="Path" fill="#EAA2A2"></path>
                    </g>
                    <g id="steak" transform="translate(134.000000, 0.000000)">
                        <path d="M50,14 L0,14 L0,21.2091049 C0,26.9542793 3.91165031,32.2480813 9.93018999,33.9316381 C19.7894255,36.689454 30.2113374,36.689454 40.0701915,33.9316381 C45.8220798,32.3230039 49.647898,27.4177716 49.9767299,21.9719207 L50,14 Z" id="Path" fill="#B2785B"></path>
                        <path d="M0,14 L0,21.2091057 C0,26.9542808 3.94157106,32.2484507 10.0061474,33.9316404 C17.1208868,35.9068083 24.5262276,36.4672595 31.8058719,35.6133611 C32.5031617,32.195564 31.097819,28.483218 31.097819,28.483218 L31.097819,14 L0,14 Z" id="Path" fill="#935B45"></path>
                        <path d="M0,13.7110936 C0,2.64217296 10.2321815,2.84223888 17.61249,4.66333199 C23.3681159,6.08315444 27.5547539,1.9447896 32.387603,0.54774505 C39.6893285,-1.56376636 47.328274,2.6155987 49.449631,9.88250822 C51.5713697,17.149038 47.3713801,24.7511623 40.0696545,26.8622941 C30.2109326,29.7125686 19.7891603,29.7125686 9.93043837,26.8622941 C3.91159789,25.1220625 0,19.6496719 0,13.7110936 Z" id="Path" fill="#FCE6D4"></path>
                        <path d="M17.6931559,4.93047077 C10.2796876,3.12934513 0,2.93184829 0,13.8797788 C0,19.7532432 3.92917274,25.1652559 9.97467278,26.8864067 C16.8371219,28.8399729 23.9708656,29.4388462 31,28.6849041 C25.6308204,20.3003018 16.0297524,23.2237049 13.2581798,15.4526191 C10.1693304,6.79204703 17.6931559,4.93047077 17.6931559,4.93047077 Z" id="Path" fill="#EFD4BF"></path>
                        <path d="M24.9994419,24 C8.77082075,24 4,17.3173779 4,13.240719 C4,12.4317451 4,7.29801223 10.5157843,7.58301662 C12.2837785,7.66047935 18.8260481,8.7698041 19.959929,8.7698041 C23.7987719,8.7698041 26.9140653,7.29362755 29.6627858,5.99064601 C31.0530757,5.33148202 34.2370774,4 36.3044715,4 C40.5870403,4 44.4136001,6.73859975 45.6104317,10.659237 C46.3332136,13.0273311 46.0437937,15.5211196 44.7959107,17.6820374 C43.5480277,19.8425898 38.0494351,24 24.9994419,24 Z" id="Path" fill="#F2B4B1"></path>
                        <path d="M41,12.999814 C41,15.2090829 39.2090829,17 36.9998141,17 C34.7909171,17 33,15.2090829 33,12.999814 C33,10.7909171 34.7909171,9 36.9998141,9 C39.2090829,9 41,10.7909171 41,12.999814 Z" id="Path" fill="#FFFFFF"></path>
                        <path d="M12.9984694,15.4502478 C11.8659008,12.2133065 12.1778114,9.92048882 13.017396,8.31544083 C11.9082964,8.15739365 10.9521239,8.03602255 10.4255855,8.01182395 C4,7.71690347 4,13.0292532 4,13.8663736 C4,18.0848708 8.70477772,25 24.7087441,25 C25.5010122,25 26.2637547,24.9837415 27,24.952359 C21.7565708,21.0730203 15.1988776,21.7399943 12.9984694,15.4502478 Z" id="Path" fill="#EAA2A2"></path>
                    </g>
                </g>
                <g id="Group-2" transform="translate(0.000000, 47.000000)">
                    <g id="steak">
                        <path d="M50,14 L0,14 L0,21.2091049 C0,26.9542793 3.91165031,32.2480813 9.93018999,33.9316381 C19.7894255,36.689454 30.2113374,36.689454 40.0701915,33.9316381 C45.8220798,32.3230039 49.647898,27.4177716 49.9767299,21.9719207 L50,14 Z" id="Path" fill="#B2785B"></path>
                        <path d="M0,14 L0,21.2091057 C0,26.9542808 3.94157106,32.2484507 10.0061474,33.9316404 C17.1208868,35.9068083 24.5262276,36.4672595 31.8058719,35.6133611 C32.5031617,32.195564 31.097819,28.483218 31.097819,28.483218 L31.097819,14 L0,14 Z" id="Path" fill="#935B45"></path>
                        <path d="M0,13.7110936 C0,2.64217296 10.2321815,2.84223888 17.61249,4.66333199 C23.3681159,6.08315444 27.5547539,1.9447896 32.387603,0.54774505 C39.6893285,-1.56376636 47.328274,2.6155987 49.449631,9.88250822 C51.5713697,17.149038 47.3713801,24.7511623 40.0696545,26.8622941 C30.2109326,29.7125686 19.7891603,29.7125686 9.93043837,26.8622941 C3.91159789,25.1220625 0,19.6496719 0,13.7110936 Z" id="Path" fill="#FCE6D4"></path>
                        <path d="M17.6931559,4.93047077 C10.2796876,3.12934513 0,2.93184829 0,13.8797788 C0,19.7532432 3.92917274,25.1652559 9.97467278,26.8864067 C16.8371219,28.8399729 23.9708656,29.4388462 31,28.6849041 C25.6308204,20.3003018 16.0297524,23.2237049 13.2581798,15.4526191 C10.1693304,6.79204703 17.6931559,4.93047077 17.6931559,4.93047077 Z" id="Path" fill="#EFD4BF"></path>
                        <path d="M24.9994419,24 C8.77082075,24 4,17.3173779 4,13.240719 C4,12.4317451 4,7.29801223 10.5157843,7.58301662 C12.2837785,7.66047935 18.8260481,8.7698041 19.959929,8.7698041 C23.7987719,8.7698041 26.9140653,7.29362755 29.6627858,5.99064601 C31.0530757,5.33148202 34.2370774,4 36.3044715,4 C40.5870403,4 44.4136001,6.73859975 45.6104317,10.659237 C46.3332136,13.0273311 46.0437937,15.5211196 44.7959107,17.6820374 C43.5480277,19.8425898 38.0494351,24 24.9994419,24 Z" id="Path" fill="#F2B4B1"></path>
                        <path d="M41,12.999814 C41,15.2090829 39.2090829,17 36.9998141,17 C34.7909171,17 33,15.2090829 33,12.999814 C33,10.7909171 34.7909171,9 36.9998141,9 C39.2090829,9 41,10.7909171 41,12.999814 Z" id="Path" fill="#FFFFFF"></path>
                        <path d="M12.9984694,15.4502478 C11.8659008,12.2133065 12.1778114,9.92048882 13.017396,8.31544083 C11.9082964,8.15739365 10.9521239,8.03602255 10.4255855,8.01182395 C4,7.71690347 4,13.0292532 4,13.8663736 C4,18.0848708 8.70477772,25 24.7087441,25 C25.5010122,25 26.2637547,24.9837415 27,24.952359 C21.7565708,21.0730203 15.1988776,21.7399943 12.9984694,15.4502478 Z" id="Path" fill="#EAA2A2"></path>
                    </g>
                    <g id="steak" transform="translate(67.000000, 0.000000)">
                        <path d="M50,14 L0,14 L0,21.2091049 C0,26.9542793 3.91165031,32.2480813 9.93018999,33.9316381 C19.7894255,36.689454 30.2113374,36.689454 40.0701915,33.9316381 C45.8220798,32.3230039 49.647898,27.4177716 49.9767299,21.9719207 L50,14 Z" id="Path" fill="#B2785B"></path>
                        <path d="M0,14 L0,21.2091057 C0,26.9542808 3.94157106,32.2484507 10.0061474,33.9316404 C17.1208868,35.9068083 24.5262276,36.4672595 31.8058719,35.6133611 C32.5031617,32.195564 31.097819,28.483218 31.097819,28.483218 L31.097819,14 L0,14 Z" id="Path" fill="#935B45"></path>
                        <path d="M0,13.7110936 C0,2.64217296 10.2321815,2.84223888 17.61249,4.66333199 C23.3681159,6.08315444 27.5547539,1.9447896 32.387603,0.54774505 C39.6893285,-1.56376636 47.328274,2.6155987 49.449631,9.88250822 C51.5713697,17.149038 47.3713801,24.7511623 40.0696545,26.8622941 C30.2109326,29.7125686 19.7891603,29.7125686 9.93043837,26.8622941 C3.91159789,25.1220625 0,19.6496719 0,13.7110936 Z" id="Path" fill="#FCE6D4"></path>
                        <path d="M17.6931559,4.93047077 C10.2796876,3.12934513 0,2.93184829 0,13.8797788 C0,19.7532432 3.92917274,25.1652559 9.97467278,26.8864067 C16.8371219,28.8399729 23.9708656,29.4388462 31,28.6849041 C25.6308204,20.3003018 16.0297524,23.2237049 13.2581798,15.4526191 C10.1693304,6.79204703 17.6931559,4.93047077 17.6931559,4.93047077 Z" id="Path" fill="#EFD4BF"></path>
                        <path d="M24.9994419,24 C8.77082075,24 4,17.3173779 4,13.240719 C4,12.4317451 4,7.29801223 10.5157843,7.58301662 C12.2837785,7.66047935 18.8260481,8.7698041 19.959929,8.7698041 C23.7987719,8.7698041 26.9140653,7.29362755 29.6627858,5.99064601 C31.0530757,5.33148202 34.2370774,4 36.3044715,4 C40.5870403,4 44.4136001,6.73859975 45.6104317,10.659237 C46.3332136,13.0273311 46.0437937,15.5211196 44.7959107,17.6820374 C43.5480277,19.8425898 38.0494351,24 24.9994419,24 Z" id="Path" fill="#F2B4B1"></path>
                        <path d="M41,12.999814 C41,15.2090829 39.2090829,17 36.9998141,17 C34.7909171,17 33,15.2090829 33,12.999814 C33,10.7909171 34.7909171,9 36.9998141,9 C39.2090829,9 41,10.7909171 41,12.999814 Z" id="Path" fill="#FFFFFF"></path>
                        <path d="M12.9984694,15.4502478 C11.8659008,12.2133065 12.1778114,9.92048882 13.017396,8.31544083 C11.9082964,8.15739365 10.9521239,8.03602255 10.4255855,8.01182395 C4,7.71690347 4,13.0292532 4,13.8663736 C4,18.0848708 8.70477772,25 24.7087441,25 C25.5010122,25 26.2637547,24.9837415 27,24.952359 C21.7565708,21.0730203 15.1988776,21.7399943 12.9984694,15.4502478 Z" id="Path" fill="#EAA2A2"></path>
                    </g>
                    <g id="steak" transform="translate(134.000000, 0.000000)">
                        <path d="M50,14 L0,14 L0,21.2091049 C0,26.9542793 3.91165031,32.2480813 9.93018999,33.9316381 C19.7894255,36.689454 30.2113374,36.689454 40.0701915,33.9316381 C45.8220798,32.3230039 49.647898,27.4177716 49.9767299,21.9719207 L50,14 Z" id="Path" fill="#B2785B"></path>
                        <path d="M0,14 L0,21.2091057 C0,26.9542808 3.94157106,32.2484507 10.0061474,33.9316404 C17.1208868,35.9068083 24.5262276,36.4672595 31.8058719,35.6133611 C32.5031617,32.195564 31.097819,28.483218 31.097819,28.483218 L31.097819,14 L0,14 Z" id="Path" fill="#935B45"></path>
                        <path d="M0,13.7110936 C0,2.64217296 10.2321815,2.84223888 17.61249,4.66333199 C23.3681159,6.08315444 27.5547539,1.9447896 32.387603,0.54774505 C39.6893285,-1.56376636 47.328274,2.6155987 49.449631,9.88250822 C51.5713697,17.149038 47.3713801,24.7511623 40.0696545,26.8622941 C30.2109326,29.7125686 19.7891603,29.7125686 9.93043837,26.8622941 C3.91159789,25.1220625 0,19.6496719 0,13.7110936 Z" id="Path" fill="#FCE6D4"></path>
                        <path d="M17.6931559,4.93047077 C10.2796876,3.12934513 0,2.93184829 0,13.8797788 C0,19.7532432 3.92917274,25.1652559 9.97467278,26.8864067 C16.8371219,28.8399729 23.9708656,29.4388462 31,28.6849041 C25.6308204,20.3003018 16.0297524,23.2237049 13.2581798,15.4526191 C10.1693304,6.79204703 17.6931559,4.93047077 17.6931559,4.93047077 Z" id="Path" fill="#EFD4BF"></path>
                        <path d="M24.9994419,24 C8.77082075,24 4,17.3173779 4,13.240719 C4,12.4317451 4,7.29801223 10.5157843,7.58301662 C12.2837785,7.66047935 18.8260481,8.7698041 19.959929,8.7698041 C23.7987719,8.7698041 26.9140653,7.29362755 29.6627858,5.99064601 C31.0530757,5.33148202 34.2370774,4 36.3044715,4 C40.5870403,4 44.4136001,6.73859975 45.6104317,10.659237 C46.3332136,13.0273311 46.0437937,15.5211196 44.7959107,17.6820374 C43.5480277,19.8425898 38.0494351,24 24.9994419,24 Z" id="Path" fill="#F2B4B1"></path>
                        <path d="M41,12.999814 C41,15.2090829 39.2090829,17 36.9998141,17 C34.7909171,17 33,15.2090829 33,12.999814 C33,10.7909171 34.7909171,9 36.9998141,9 C39.2090829,9 41,10.7909171 41,12.999814 Z" id="Path" fill="#FFFFFF"></path>
                        <path d="M12.9984694,15.4502478 C11.8659008,12.2133065 12.1778114,9.92048882 13.017396,8.31544083 C11.9082964,8.15739365 10.9521239,8.03602255 10.4255855,8.01182395 C4,7.71690347 4,13.0292532 4,13.8663736 C4,18.0848708 8.70477772,25 24.7087441,25 C25.5010122,25 26.2637547,24.9837415 27,24.952359 C21.7565708,21.0730203 15.1988776,21.7399943 12.9984694,15.4502478 Z" id="Path" fill="#EAA2A2"></path>
                    </g>
                </g>
                <g id="Group-2" transform="translate(0.000000, 94.000000)">
                    <g id="steak">
                        <path d="M50,14 L0,14 L0,21.2091049 C0,26.9542793 3.91165031,32.2480813 9.93018999,33.9316381 C19.7894255,36.689454 30.2113374,36.689454 40.0701915,33.9316381 C45.8220798,32.3230039 49.647898,27.4177716 49.9767299,21.9719207 L50,14 Z" id="Path" fill="#B2785B"></path>
                        <path d="M0,14 L0,21.2091057 C0,26.9542808 3.94157106,32.2484507 10.0061474,33.9316404 C17.1208868,35.9068083 24.5262276,36.4672595 31.8058719,35.6133611 C32.5031617,32.195564 31.097819,28.483218 31.097819,28.483218 L31.097819,14 L0,14 Z" id="Path" fill="#935B45"></path>
                        <path d="M0,13.7110936 C0,2.64217296 10.2321815,2.84223888 17.61249,4.66333199 C23.3681159,6.08315444 27.5547539,1.9447896 32.387603,0.54774505 C39.6893285,-1.56376636 47.328274,2.6155987 49.449631,9.88250822 C51.5713697,17.149038 47.3713801,24.7511623 40.0696545,26.8622941 C30.2109326,29.7125686 19.7891603,29.7125686 9.93043837,26.8622941 C3.91159789,25.1220625 0,19.6496719 0,13.7110936 Z" id="Path" fill="#FCE6D4"></path>
                        <path d="M17.6931559,4.93047077 C10.2796876,3.12934513 0,2.93184829 0,13.8797788 C0,19.7532432 3.92917274,25.1652559 9.97467278,26.8864067 C16.8371219,28.8399729 23.9708656,29.4388462 31,28.6849041 C25.6308204,20.3003018 16.0297524,23.2237049 13.2581798,15.4526191 C10.1693304,6.79204703 17.6931559,4.93047077 17.6931559,4.93047077 Z" id="Path" fill="#EFD4BF"></path>
                        <path d="M24.9994419,24 C8.77082075,24 4,17.3173779 4,13.240719 C4,12.4317451 4,7.29801223 10.5157843,7.58301662 C12.2837785,7.66047935 18.8260481,8.7698041 19.959929,8.7698041 C23.7987719,8.7698041 26.9140653,7.29362755 29.6627858,5.99064601 C31.0530757,5.33148202 34.2370774,4 36.3044715,4 C40.5870403,4 44.4136001,6.73859975 45.6104317,10.659237 C46.3332136,13.0273311 46.0437937,15.5211196 44.7959107,17.6820374 C43.5480277,19.8425898 38.0494351,24 24.9994419,24 Z" id="Path" fill="#F2B4B1"></path>
                        <path d="M41,12.999814 C41,15.2090829 39.2090829,17 36.9998141,17 C34.7909171,17 33,15.2090829 33,12.999814 C33,10.7909171 34.7909171,9 36.9998141,9 C39.2090829,9 41,10.7909171 41,12.999814 Z" id="Path" fill="#FFFFFF"></path>
                        <path d="M12.9984694,15.4502478 C11.8659008,12.2133065 12.1778114,9.92048882 13.017396,8.31544083 C11.9082964,8.15739365 10.9521239,8.03602255 10.4255855,8.01182395 C4,7.71690347 4,13.0292532 4,13.8663736 C4,18.0848708 8.70477772,25 24.7087441,25 C25.5010122,25 26.2637547,24.9837415 27,24.952359 C21.7565708,21.0730203 15.1988776,21.7399943 12.9984694,15.4502478 Z" id="Path" fill="#EAA2A2"></path>
                    </g>
                    <g id="steak" transform="translate(67.000000, 0.000000)">
                        <path d="M50,14 L0,14 L0,21.2091049 C0,26.9542793 3.91165031,32.2480813 9.93018999,33.9316381 C19.7894255,36.689454 30.2113374,36.689454 40.0701915,33.9316381 C45.8220798,32.3230039 49.647898,27.4177716 49.9767299,21.9719207 L50,14 Z" id="Path" fill="#B2785B"></path>
                        <path d="M0,14 L0,21.2091057 C0,26.9542808 3.94157106,32.2484507 10.0061474,33.9316404 C17.1208868,35.9068083 24.5262276,36.4672595 31.8058719,35.6133611 C32.5031617,32.195564 31.097819,28.483218 31.097819,28.483218 L31.097819,14 L0,14 Z" id="Path" fill="#935B45"></path>
                        <path d="M0,13.7110936 C0,2.64217296 10.2321815,2.84223888 17.61249,4.66333199 C23.3681159,6.08315444 27.5547539,1.9447896 32.387603,0.54774505 C39.6893285,-1.56376636 47.328274,2.6155987 49.449631,9.88250822 C51.5713697,17.149038 47.3713801,24.7511623 40.0696545,26.8622941 C30.2109326,29.7125686 19.7891603,29.7125686 9.93043837,26.8622941 C3.91159789,25.1220625 0,19.6496719 0,13.7110936 Z" id="Path" fill="#FCE6D4"></path>
                        <path d="M17.6931559,4.93047077 C10.2796876,3.12934513 0,2.93184829 0,13.8797788 C0,19.7532432 3.92917274,25.1652559 9.97467278,26.8864067 C16.8371219,28.8399729 23.9708656,29.4388462 31,28.6849041 C25.6308204,20.3003018 16.0297524,23.2237049 13.2581798,15.4526191 C10.1693304,6.79204703 17.6931559,4.93047077 17.6931559,4.93047077 Z" id="Path" fill="#EFD4BF"></path>
                        <path d="M24.9994419,24 C8.77082075,24 4,17.3173779 4,13.240719 C4,12.4317451 4,7.29801223 10.5157843,7.58301662 C12.2837785,7.66047935 18.8260481,8.7698041 19.959929,8.7698041 C23.7987719,8.7698041 26.9140653,7.29362755 29.6627858,5.99064601 C31.0530757,5.33148202 34.2370774,4 36.3044715,4 C40.5870403,4 44.4136001,6.73859975 45.6104317,10.659237 C46.3332136,13.0273311 46.0437937,15.5211196 44.7959107,17.6820374 C43.5480277,19.8425898 38.0494351,24 24.9994419,24 Z" id="Path" fill="#F2B4B1"></path>
                        <path d="M41,12.999814 C41,15.2090829 39.2090829,17 36.9998141,17 C34.7909171,17 33,15.2090829 33,12.999814 C33,10.7909171 34.7909171,9 36.9998141,9 C39.2090829,9 41,10.7909171 41,12.999814 Z" id="Path" fill="#FFFFFF"></path>
                        <path d="M12.9984694,15.4502478 C11.8659008,12.2133065 12.1778114,9.92048882 13.017396,8.31544083 C11.9082964,8.15739365 10.9521239,8.03602255 10.4255855,8.01182395 C4,7.71690347 4,13.0292532 4,13.8663736 C4,18.0848708 8.70477772,25 24.7087441,25 C25.5010122,25 26.2637547,24.9837415 27,24.952359 C21.7565708,21.0730203 15.1988776,21.7399943 12.9984694,15.4502478 Z" id="Path" fill="#EAA2A2"></path>
                    </g>
                    <g id="steak" transform="translate(134.000000, 0.000000)">
                        <path d="M50,14 L0,14 L0,21.2091049 C0,26.9542793 3.91165031,32.2480813 9.93018999,33.9316381 C19.7894255,36.689454 30.2113374,36.689454 40.0701915,33.9316381 C45.8220798,32.3230039 49.647898,27.4177716 49.9767299,21.9719207 L50,14 Z" id="Path" fill="#B2785B"></path>
                        <path d="M0,14 L0,21.2091057 C0,26.9542808 3.94157106,32.2484507 10.0061474,33.9316404 C17.1208868,35.9068083 24.5262276,36.4672595 31.8058719,35.6133611 C32.5031617,32.195564 31.097819,28.483218 31.097819,28.483218 L31.097819,14 L0,14 Z" id="Path" fill="#935B45"></path>
                        <path d="M0,13.7110936 C0,2.64217296 10.2321815,2.84223888 17.61249,4.66333199 C23.3681159,6.08315444 27.5547539,1.9447896 32.387603,0.54774505 C39.6893285,-1.56376636 47.328274,2.6155987 49.449631,9.88250822 C51.5713697,17.149038 47.3713801,24.7511623 40.0696545,26.8622941 C30.2109326,29.7125686 19.7891603,29.7125686 9.93043837,26.8622941 C3.91159789,25.1220625 0,19.6496719 0,13.7110936 Z" id="Path" fill="#FCE6D4"></path>
                        <path d="M17.6931559,4.93047077 C10.2796876,3.12934513 0,2.93184829 0,13.8797788 C0,19.7532432 3.92917274,25.1652559 9.97467278,26.8864067 C16.8371219,28.8399729 23.9708656,29.4388462 31,28.6849041 C25.6308204,20.3003018 16.0297524,23.2237049 13.2581798,15.4526191 C10.1693304,6.79204703 17.6931559,4.93047077 17.6931559,4.93047077 Z" id="Path" fill="#EFD4BF"></path>
                        <path d="M24.9994419,24 C8.77082075,24 4,17.3173779 4,13.240719 C4,12.4317451 4,7.29801223 10.5157843,7.58301662 C12.2837785,7.66047935 18.8260481,8.7698041 19.959929,8.7698041 C23.7987719,8.7698041 26.9140653,7.29362755 29.6627858,5.99064601 C31.0530757,5.33148202 34.2370774,4 36.3044715,4 C40.5870403,4 44.4136001,6.73859975 45.6104317,10.659237 C46.3332136,13.0273311 46.0437937,15.5211196 44.7959107,17.6820374 C43.5480277,19.8425898 38.0494351,24 24.9994419,24 Z" id="Path" fill="#F2B4B1"></path>
                        <path d="M41,12.999814 C41,15.2090829 39.2090829,17 36.9998141,17 C34.7909171,17 33,15.2090829 33,12.999814 C33,10.7909171 34.7909171,9 36.9998141,9 C39.2090829,9 41,10.7909171 41,12.999814 Z" id="Path" fill="#FFFFFF"></path>
                        <path d="M12.9984694,15.4502478 C11.8659008,12.2133065 12.1778114,9.92048882 13.017396,8.31544083 C11.9082964,8.15739365 10.9521239,8.03602255 10.4255855,8.01182395 C4,7.71690347 4,13.0292532 4,13.8663736 C4,18.0848708 8.70477772,25 24.7087441,25 C25.5010122,25 26.2637547,24.9837415 27,24.952359 C21.7565708,21.0730203 15.1988776,21.7399943 12.9984694,15.4502478 Z" id="Path" fill="#EAA2A2"></path>
                    </g>
                </g>
            </g>
            <g id="person" transform="translate(74.000000, 302.000000)">
                <path d="M6.01277142,38.3987365 C6.00414964,38.5653142 5.99897658,38.7322991 6.00017036,38.8999629 L6.00017036,47.8043335 C6.00017036,50.1214872 7.83541549,52 10.0994946,52 L12,52 L12,37 L6.01277142,38.3987365 Z" id="Path" fill="#FFC98C"></path>
                <path d="M14,37 L14,52 L24.934872,52 C27.1800644,52 29,50.1214872 29,47.8043335 L29,38.8650725 C29,38.7090842 28.9952647,38.5536388 28.9871094,38.3987365 L14,37 Z" id="Path" fill="#F7A16E"></path>
                <path d="M24.9978234,68.168886 L24.9978234,37.8011543 L29,37.8011543 C28.8709825,35.2255618 27.7218048,32.8050298 25.7300637,30.9399065 C23.7446418,29.0805997 21.1311152,28.0090795 18.5590584,28 L18.5261458,28 C16.9983412,28 15.4440748,28.3765146 14,29.0902467 L18.5389159,55.3028406 C19.8591076,55.3028406 20.9292949,56.4560761 20.9292949,57.8787167 L20.9292949,70.9037949 L20.9569415,70.9037949 C20.9398269,71.0448106 20.9299531,71.1880961 20.9294265,71.3332259 C20.9279784,71.6993842 21.1972037,72 21.5368622,72 L26.427285,72 C26.7614141,72 27.0323509,71.7081799 27.0323509,71.34798 L27.0323509,71.2692439 C27.0320876,69.8373819 26.1828099,68.6203063 24.9978234,68.168886 Z" id="Path" fill="#1A3E6E"></path>
                <path d="M12.8035923,30 L12.2707781,30.2524928 C8.55208189,32.0148062 6.19277774,35.1578485 6,38.5383921 L10.6049614,38.5383921 L10.6049614,68.2552227 C9.23577215,68.7132909 8.27354142,69.9556275 8.2758023,71.367033 C8.2764052,71.7171082 8.58825598,72 8.96853608,72 L14.5705458,72 C14.9530867,72 15.2632795,71.7144708 15.2632795,71.3620359 L15.2632795,71.2849971 C15.2632795,71.163956 15.2554418,71.0448583 15.2414244,70.9275651 L15.2632795,70.9275651 L15.2632795,58.1832736 C15.2632795,56.7913013 16.488526,55.6629265 18,55.6629265 L18,31.4601272 L12.8035923,30 Z" id="Path" fill="#315588"></path>
                <rect id="Rectangle" fill="#1A3E6E" x="12" y="47" width="9" height="3"></rect>
                <path d="M24.9346679,7.2833312 C22.9131845,5.8621546 20.5649767,5 18.0602779,5 C11.2272543,5 5.5618841,11.4163532 4.51019666,18.090674 C4.12289523,17.9296867 3.6968917,17.8406034 3.2502751,17.8406034 C1.45525497,17.8406034 0,19.2784052 0,21.0518973 C0,22.8253893 1.45525497,24.2631911 3.2502751,24.2631911 C3.83305017,24.2631911 4.37936674,24.1109321 4.85234564,23.8456218 C5.2493226,25.1857506 5.85874041,26.4385971 6.63418462,27.583657 C7.01419435,28.1450343 9.19202871,29.8286117 12.29661,30.4704826 L19.6946002,32 L26.3336927,25.5671601 C31.7232403,20.3453267 31.0988184,11.6165482 24.9346679,7.2833312 Z" id="Path" fill="#FFC98C"></path>
                <path d="M32.6859842,18.4529485 C32.2603478,18.4529485 31.8531552,18.5310007 31.4792758,18.6713299 C31.4645494,18.5765425 31.449537,18.481618 31.4328089,18.3872421 C30.690912,14.1945126 28.2672011,10.374897 24.6595147,8 C26.7149223,10.7200273 27.7532062,13.8264742 27.7532062,17.0780515 C27.7532062,24.3909454 21.4870441,30.3192029 13.7573906,30.3192029 C10.8878838,30.3192029 8.22054359,29.5016447 6,28.1001358 C8.13432971,31.1267474 11.5514305,33.2739352 15.5159822,33.8481464 C16.9212828,34.0515758 18.374194,34.0500668 19.7794945,33.8469119 C25.20525,33.0621382 29.6123092,29.3296282 31.1021079,24.4241416 C31.5729244,24.6706436 32.1117969,24.8124817 32.6859842,24.8124817 C34.5163492,24.8124817 36,23.3888879 36,21.6329209 C36,19.8769539 34.5162062,18.4529485 32.6859842,18.4529485 Z" id="Path" fill="#F7A16E"></path>
                <g id="Group" transform="translate(12.000000, 20.000000)" fill="#35404A">
                    <ellipse id="Oval" cx="1.30982558" cy="1.4475" rx="1.16788372" ry="1.37964286"></ellipse>
                    <ellipse id="Oval" cx="11.7730116" cy="1.4475" rx="1.16788372" ry="1.37964286"></ellipse>
                    <path d="M7.50780233,1.67303571 C7.28725581,1.93375 6.99384884,2.07714286 6.682,2.07714286 C6.37015116,2.07714286 6.07674419,1.93357143 5.85619767,1.67303571 C5.40013953,1.13446429 4.6605,1.13428571 4.20459302,1.67303571 C3.74838372,2.21178571 3.74838372,3.08553571 4.20444186,3.62428571 C4.86623256,4.40607143 5.74615116,4.83660714 6.682,4.83660714 C7.61784884,4.83660714 8.49776744,4.40589286 9.15955814,3.62428571 C9.61561628,3.08553571 9.61561628,2.21178571 9.15940698,1.67303571 C8.70365116,1.13428571 7.96401163,1.13428571 7.50780233,1.67303571 Z" id="Path"></path>
                </g>
                <circle id="Oval" fill="#F7A16E" cx="4.5" cy="21.5" r="1.5"></circle>
                <circle id="Oval" fill="#CE795F" cx="32.5" cy="21.5" r="1.5"></circle>
                <path d="M32.5808104,11.1964087 C29.6760987,5.50851536 24.2858523,0 17.830074,0 C16.6383793,0 15.0924963,0.171186598 13.6967936,0.434700111 C11.9548142,0.763328397 10.6907843,2.25291559 10.6907843,3.99615883 C8.70820553,3.99518697 6.84020464,4.91082007 5.65020529,6.46899297 C5.29361519,6.93604221 4.9579345,7.40350796 4.648108,7.87486116 C2.65069486,10.9133191 2.46152127,14.7706405 4.12056941,18 L13.5745866,10.5781655 L26.9828828,16.1534617 L32.8721293,14.9332192 C33.1107508,13.6939559 33.0163759,12.4033228 32.5808104,11.1964087 Z" id="Path" fill="#315588"></path>
                <path d="M31.9032848,9.81232566 C30.5914516,7.7400412 28.9476198,5.77351948 27.9591377,4.78658534 C29.1224081,6.28736286 29.6206893,9.10026377 29.6206893,10.9556168 C29.6206893,13.6956065 28.4628057,14.5855106 25.8836514,14.0392315 C22.3239534,13.2853081 16.9518728,10.4955558 13.4269056,5.40813207 C12.7735406,4.46527729 11.697877,3.97236468 10.6139915,4.00119646 C10.6139915,5.75938082 10.8661798,6.16524362 10.2991458,9.8813556 C9.66009842,12.72392 7.03643188,14.7870559 4.06077895,14.7870559 C3.97104581,14.7870559 3.58574617,14.7906599 3,14.797452 C3.15777722,15.8908419 3.49757238,16.9673209 4.02122832,17.9817007 C4.032569,17.988077 4.04192507,17.9933443 4.0534075,17.9999978 C8.68281524,18.0030473 12.5526809,14.8178283 13.507708,10.5723481 C18.1800685,15.271513 24.5869862,17.970473 31.4700708,17.970473 C33.3371722,15.6044647 33.5118187,12.3535425 31.9032848,9.81232566 Z" id="Path" fill="#1A3E6E"></path>
            </g>
        </g>
    </g>
</svg>