<?xml version="1.0" encoding="UTF-8"?>
<svg width="1216px" height="586px" viewBox="0 0 1216 586" version="1.1" xmlns="http://www.w3.org/2000/svg" xmlns:xlink="http://www.w3.org/1999/xlink">
    <!-- Generator: Sketch 52.6 (67491) - http://www.bohemiancoding.com/sketch -->
    <title>Group 2</title>
    <desc>Created with Sketch.</desc>
    <g id="Page-1" stroke="none" stroke-width="1" fill="none" fill-rule="evenodd">
        <g id="Group-2">
            <path d="M433.5,261.955845 L433.5,343.548076 L590.5,359.44681 L590.5,234.594674 L433.5,261.955845 Z" id="Rectangle" stroke="#979797" fill="#B8CB90"></path>
            <g id="599514" transform="translate(422.000000, 0.000000)">
                <path d="M784,293.49935 C784,210.604354 718.991464,142.902027 637.186228,138.601773 C634.37464,138.454789 631.821843,136.912109 630.328919,134.523947 C629.27945,132.842087 628.70985,130.914387 628.608414,128.934658 C625.355972,65.774522 573.65371,10 510.177112,10 C437.242292,10 381.323949,75.318067 392.939629,147.585999 C394.869507,159.591849 388.806778,171.431204 378.189848,177.354784 C349.362622,193.443663 316.73416,204.247627 282.409903,208.925096 L174.209294,222.0769 C164.446765,223.407559 158.086231,232.958908 160.520686,242.510258 C165.836953,263.367658 171.493941,300.584492 160.626023,343.464757 C158.065423,353.566321 164.866813,363.649674 175.191139,365.055776 L282.411203,378.072302 C320.738267,383.296083 356.948186,396.157821 388.116235,415.485548 C393.363578,418.738705 395.989201,424.983568 394.579505,430.995598 C377.05585,505.659497 433.750565,577 510.178413,577 C570.762795,577 620.734148,523.409424 627.994599,463.527158 C629.093485,454.466189 636.917033,448.627157 645.328388,447.742653 C723.262164,439.541473 784,373.622464 784,293.49935 Z" id="Path" fill="#CEE49F"></path>
                <path d="M457.40402,445.213012 C457.415726,445.111554 457.42353,445.021803 457.436537,444.916443 C459.037669,431.262584 456.687347,422.724532 454.957448,418.556964 L453.396636,415.485919 L447.256144,406.998596 C397.9306,338.830759 396.419214,247.11304 443.471176,177.355701 C443.471176,177.355701 449.983662,165.875377 454.357836,157.110996 C455.371063,154.925755 457.515878,149.275344 457.379307,141.157431 C457.171199,139.199818 457.015117,137.24871 456.903259,135.304105 C456.892854,135.229962 456.887651,135.161023 456.875945,135.086881 L456.710759,130.721601 C455.702735,76.7903539 491.572784,29.5514102 542,14.7789156 C531.893746,11.6792542 521.242508,10 510.237487,10 C440.336546,10 386.073636,69.978383 391.885057,138.575464 C391.89026,138.633997 391.895463,138.693831 391.900665,138.752364 C391.978706,139.66028 392.06455,140.569497 392.163402,141.481315 C392.194618,141.768778 392.232338,142.056241 392.264855,142.345006 C392.346797,143.051307 392.427439,143.757608 392.522388,144.466511 C392.66026,145.5032 392.811139,146.543792 392.978926,147.584383 C394.889619,159.469236 389.141931,171.239625 378.641572,177.124169 C349.70803,193.341785 316.925787,204.225069 282.430553,208.92594 L174.211692,222.077714 C164.447515,223.40837 158.085908,232.959698 160.520774,242.511025 C165.837938,263.368378 171.49588,300.585126 160.626129,343.465293 C158.065097,353.566833 164.867634,363.650163 175.193702,365.056262 L282.431854,378.072759 C320.765383,383.296527 356.981411,396.158236 388.154718,415.485919 C388.671086,415.805901 389.153637,416.162303 389.617979,416.536916 C389.690816,416.595449 389.764955,416.651381 389.836492,416.711215 C390.273519,417.078024 390.683232,417.469546 391.068232,417.879279 C391.137168,417.953421 391.204803,418.027563 391.272439,418.101705 C391.656138,418.528348 392.019027,418.9719 392.346797,419.437565 C392.378013,419.480489 392.405328,419.526015 392.435243,419.571541 C392.773419,420.061919 393.085581,420.571809 393.360024,421.098608 L393.37173,421.11942 C393.648774,421.654024 393.886798,422.205537 394.093605,422.770058 C394.113115,422.823389 394.133926,422.876719 394.153436,422.930049 C394.35244,423.489367 394.517626,424.060391 394.646393,424.641822 C394.655497,424.684746 394.664602,424.728971 394.673707,424.771896 C394.932541,425.994591 395.037896,427.257608 394.96766,428.529731 C394.922136,429.350498 394.811579,430.175166 394.619079,430.995933 C377.092467,505.659661 433.796746,577 510.237487,577 C521.083826,577 531.588087,575.273919 541.570777,572.111822 C487.646042,556.112731 450.931855,503.00225 457.40402,445.213012 Z" id="Path" fill="#B8CB90"></path>
                <path d="M364.952522,255.701519 C364.425364,250.400613 359.636686,246.522967 354.284405,247.04753 L181.808714,263.761519 C176.443417,264.280938 172.52032,268.999426 173.047478,274.299046 C173.570731,279.565238 178.313852,283.476312 183.715595,282.953035 L356.191286,266.23776 C361.556583,265.719627 365.47968,261.001139 364.952522,255.701519 Z" id="Path" fill="#000000"></path>
                <path d="M356.191276,324.760992 L183.715398,308.046266 C178.36181,307.529435 173.574429,311.401811 173.04727,316.699971 C172.521413,321.999417 176.443213,326.71775 181.808516,327.238438 L354.284394,343.953163 C359.678333,344.475137 364.429268,340.573191 364.952522,335.299458 C365.47968,330.000012 361.556579,325.28168 356.191276,324.760992 Z" id="Path" fill="#000000"></path>
                <path d="M164.346079,348.787617 L10.7153979,335.046266 C5.36180957,334.529435 0.574428585,338.401811 0.0472699928,343.699971 C-0.478586973,348.999417 3.44321262,353.71775 8.80851562,354.238438 L181.284394,370.953163 C186.678333,371.475137 191.429268,367.573191 191.952522,362.299458 C192.47968,357.000012 169.711382,349.308305 164.346079,348.787617 Z" id="Path" fill="#000000"></path>
                <path d="M567.534584,38.852868 C571.919826,41.9896062 578.026072,40.9834581 581.171044,36.6065838 C584.313409,32.2297095 583.306341,26.1382235 578.919797,23.0001853 C484.8195,-44.275246 355.964277,46.4626756 385.079361,160.471997 C353.924084,182.33947 316.245663,196.781725 276.103638,202.237544 L152.338055,222.668672 C146.991344,223.396634 155.362284,223.05987 156.090552,228.394795 C156.822728,233.753119 161.768175,237.463128 167.091436,236.739065 L278.741818,221.558448 C319.98341,215.951837 358.868229,201.469284 391.624653,179.610911 C401.54421,202.51443 418.117191,222.357907 439.880547,236.430981 C441.523384,237.491726 443.364248,238 445.185569,238 C454.858895,238 458.678719,225.350352 450.50883,220.066125 C419.274082,199.865166 400.625732,165.66393 400.625732,128.576842 C400.627035,43.2024437 497.269104,-11.3921414 567.534584,38.852868 Z" id="Path" fill="#000000"></path>
                <path d="M687.279619,425.59936 C668.698689,433.820288 648.900469,437.991267 628.435668,437.991267 C623.041835,437.991267 618.671306,442.360058 618.671306,447.751747 C618.671306,477.233605 606.894184,507.23472 586.360381,530.056026 C517.041223,607.102658 400.46125,551.685251 400.46125,457.372979 C400.46125,421.083511 418.445903,387.274507 448.570912,366.931062 C453.040386,363.913121 454.214714,357.846007 451.196875,353.378309 C448.179036,348.910612 442.106905,347.736751 437.638733,350.753391 C416.940889,364.7317 401.116113,384.109508 391.506679,406.311349 C358.766122,384.411433 319.88964,369.902152 278.657994,364.286623 L167.083884,349.090205 C161.756449,348.364025 156.819587,352.101638 156.090515,357.443875 C155.362744,362.78481 159.103146,367.705394 164.447507,368.432875 L276.021617,383.629293 C316.147937,389.095162 353.809732,403.558893 384.951537,425.461412 C352.582026,551.927311 510.299907,643.786449 600.880639,543.109042 C622.409104,519.181549 635.601408,488.338429 637.855023,457.240236 C657.720943,456.131445 676.967151,451.510183 695.186149,443.445423 C700.117803,441.26298 702.345379,435.49909 700.160766,430.568096 C697.980058,425.641005 692.208669,423.411711 687.279619,425.59936 Z" id="Path" fill="#000000"></path>
                <path d="M638.53881,127.838578 C636.747938,103.18022 628.074501,78.4398367 613.63698,57.2603915 C610.59887,52.8062892 604.530455,51.6618414 600.079938,54.6980783 C595.62942,57.7382212 594.484927,63.814601 597.520435,68.2700053 C621.195837,103.001848 619.147454,135.837995 619.467392,138.507071 C618.523185,152.913573 615.105312,167.004993 609.476487,179.690266 C602.688862,175.374175 595.127404,172.236383 587.035317,170.477396 C581.77455,169.338157 576.57751,172.676455 575.433017,177.946904 C574.289824,183.217353 577.629664,188.417494 582.894332,189.563244 C609.69238,195.390944 626.671196,221.817403 620.849888,248.64878 C615.040284,275.413755 588.567377,292.460689 561.826554,286.646009 C556.565787,285.511977 551.368747,288.845067 550.224254,294.115516 C549.081062,299.384663 552.420901,304.584805 557.685569,305.731857 C622.220678,319.776406 667.957487,243.265058 624.68524,192.876805 C627.46844,188.948706 635.625555,169.319929 638.233178,147.389236 C714.157295,152.102434 774.488992,215.42464 774.488992,292.5987 C774.488992,334.962798 756.088664,375.144764 724.006439,402.839359 C719.926581,406.359936 719.471385,412.526153 722.989401,416.611793 C726.512619,420.70264 732.674674,421.146618 736.746729,417.629948 C773.133809,386.223384 794,340.651186 794,292.600002 C793.998699,204.756147 725.084604,132.730149 638.53881,127.838578 Z" id="Path" fill="#000000"></path>
            </g>
            <path d="M602.31,233.522572 C601.813044,228.221666 579.918221,228.201349 574.872581,228.725911 L429.658807,241.582572 C424.600896,242.101991 420.90256,246.820479 421.399516,252.120099 C421.892791,257.386291 426.364171,261.297365 431.456438,260.774088 L629.473232,243.976221 C634.531142,243.458087 602.806956,238.822192 602.31,233.522572 Z" id="Path" fill="#000000" transform="translate(525.687077, 244.664429) rotate(-7.000000) translate(-525.687077, -244.664429) "></path>
            <g id="2194839" transform="translate(0.000000, 153.000000)">
                <path d="M143.241,399.212 L143.241,309.974 L133.668,309.974 C117.43,309.974 104.219,296.763 104.219,280.524 L103.219,280.524 L103.219,399.212 L143.241,399.212 Z" id="Path" fill="#EA9B58"></path>
                <path d="M123.52,399.212 L123.52,308.171 C112.267,304.027 104.219,293.198 104.219,280.524 L103.219,280.524 L103.219,399.212 L123.52,399.212 Z" id="Path" fill="#C57A44"></path>
                <polygon id="Path" fill="#D88A55" points="353.888 309.974 393.911 309.974 393.911 399.212 353.888 399.212"></polygon>
                <polygon id="Path" fill="#C57A44" points="353.888 309.974 374.19 309.974 374.19 399.212 353.888 399.212"></polygon>
                <polygon id="Path" fill="#32569D" points="353.888 373.99 393.911 373.99 393.911 399.212 353.888 399.212"></polygon>
                <polygon id="Path" fill="#303A78" points="353.888 373.99 374.19 373.99 374.19 399.212 353.888 399.212"></polygon>
                <path d="M133.668,310.974 L173.113,310.974 C178.719,310.974 183.263,315.518 183.263,321.124 L183.263,399.212 L223.286,399.212 L223.286,321.124 C223.286,315.518 227.83,310.974 233.436,310.974 L423.783,310.974 C429.389,310.974 433.933,315.518 433.933,321.124 L433.933,399.212 L473.956,399.212 L473.956,134.461 C473.956,95.221 442.146,63.411 402.906,63.411 L249.257,63.411 C242.162,72.03 231.431,77.333 219.9,77.333 C215.914,77.333 211.963,76.705 208.159,75.467 L206.849,75.041 L206.849,127.04 C206.849,141.528 202.803,155.715 195.15,168.066 L194.918,168.44 L195.037,168.863 C195.924,172.026 196.374,175.28 196.374,178.534 L196.374,182.481 C196.374,202.371 180.192,218.552 160.303,218.552 L103.219,218.552 L103.219,280.524 C103.218,297.341 116.851,310.974 133.668,310.974 Z" id="Path" fill="#EA9B58"></path>
                <path d="M133.671,280.524 L133.671,218.552 L103.218,218.552 L103.218,280.524 C103.218,297.341 116.851,310.974 133.668,310.974 L164.121,310.974 C147.304,310.974 133.671,297.341 133.671,280.524 Z" id="Path" fill="#D88A55"></path>
                <path d="M96.117,40.374 L96.117,13.845 C96.117,6.664 90.241,0.788 83.06,0.788 L81.67,0.788 C74.489,0.788 68.613,6.664 68.613,13.845 L68.613,40.374 L96.117,40.374 Z" id="Path" fill="#EDCAB2"></path>
                <path d="M188.453,40.374 L188.453,13.845 C188.453,6.664 182.577,0.788 175.396,0.788 L174.006,0.788 C166.825,0.788 160.949,6.664 160.949,13.845 L160.949,40.374 L188.453,40.374 Z" id="Path" fill="#EDCAB2"></path>
                <path d="M246.871,39.374 L206.85,39.374 L206.85,76.085 C210.931,77.536 215.322,78.332 219.901,78.332 C236.654,78.332 250.937,67.758 256.44,52.92 C258.877,46.348 253.881,39.374 246.871,39.374 Z" id="Path" fill="#F6A96C"></path>
                <path d="M50.216,39.374 L10.195,39.374 C3.184,39.374 -1.812,46.348 0.626,52.921 C6.129,67.759 20.412,78.333 37.165,78.333 C41.744,78.333 46.135,77.537 50.216,76.086 L50.216,39.374 Z" id="Path" fill="#F6A96C"></path>
                <path d="M20.928,52.921 C18.49,46.348 23.486,39.374 30.497,39.374 L10.195,39.374 C3.184,39.374 -1.812,46.348 0.626,52.921 C6.129,67.759 20.412,78.333 37.165,78.333 C40.676,78.333 44.075,77.861 47.311,76.99 C35.111,73.704 25.277,64.647 20.928,52.921 Z" id="Path" fill="#EA9B58"></path>
                <path d="M49.216,39.374 L49.216,127.04 C49.216,142.725 53.849,157.371 61.787,169.715 C65.732,154.075 79.915,142.463 96.763,142.463 L160.304,142.463 C177.152,142.463 191.335,154.075 195.28,169.714 C203.218,157.37 207.85,142.724 207.85,127.039 L207.85,39.374 L49.216,39.374 Z" id="Path" fill="#D88A55"></path>
                <path d="M81.912,145.675 C80.456,139.692 79.668,133.455 79.668,127.04 L79.668,39.374 L49.216,39.374 L49.216,127.04 C49.216,142.725 53.849,157.371 61.786,169.715 C64.492,158.988 72.017,150.165 81.912,145.675 Z" id="Path" fill="#C57A44"></path>
                <path d="M94.864,118.514 C90.721,118.514 87.364,115.156 87.364,111.014 L87.364,95.709 C87.364,91.567 90.721,88.209 94.864,88.209 C99.007,88.209 102.364,91.567 102.364,95.709 L102.364,111.014 C102.364,115.156 99.007,118.514 94.864,118.514 Z" id="Path" fill="#303A78"></path>
                <path d="M162.2,118.514 C158.057,118.514 154.7,115.156 154.7,111.014 L154.7,95.709 C154.7,91.567 158.057,88.209 162.2,88.209 C166.343,88.209 169.7,91.567 169.7,95.709 L169.7,111.014 C169.7,115.156 166.343,118.514 162.2,118.514 Z" id="Path" fill="#303A78"></path>
                <path d="M160.303,219.552 L96.762,219.552 C76.373,219.552 59.691,202.87 59.691,182.481 L59.691,178.534 C59.691,158.145 76.373,141.463 96.762,141.463 L160.303,141.463 C180.692,141.463 197.374,158.145 197.374,178.534 L197.374,182.481 C197.374,202.87 180.692,219.552 160.303,219.552 Z" id="Path" fill="#F5E2D4"></path>
                <path d="M82.023,181.921 L82.023,179.093 C82.023,158.396 98.957,141.463 119.653,141.463 L97.321,141.463 C76.624,141.463 59.691,158.397 59.691,179.093 L59.691,181.921 C59.691,202.618 76.625,219.551 97.321,219.551 L119.653,219.551 C98.957,219.552 82.023,202.618 82.023,181.921 Z" id="Path" fill="#EDCAB2"></path>
                <path d="M262.466,399.212 L262.466,384.684 C262.466,380.542 259.109,377.184 254.966,377.184 C250.823,377.184 247.466,380.542 247.466,384.684 L247.466,399.212 L262.466,399.212 Z" id="Path" fill="#09A76D"></path>
                <path d="M311.186,399.212 L311.186,384.684 C311.186,380.542 307.829,377.184 303.686,377.184 C299.543,377.184 296.186,380.542 296.186,384.684 L296.186,399.212 L311.186,399.212 Z" id="Path" fill="#09A76D"></path>
                <path d="M64.54,399.212 L64.54,384.684 C64.54,380.542 61.183,377.184 57.04,377.184 C52.897,377.184 49.54,380.542 49.54,384.684 L49.54,399.212 L64.54,399.212 Z" id="Path" fill="#09A76D"></path>
                <g id="Group" transform="translate(88.000000, 169.000000)" fill="#32569D">
                    <path d="M20.232,15.36 L8.052,15.36 C3.909,15.36 0.552,12.002 0.552,7.86 C0.552,3.718 3.909,0.36 8.052,0.36 L20.232,0.36 C24.375,0.36 27.732,3.718 27.732,7.86 C27.732,12.002 24.375,15.36 20.232,15.36 Z" id="Path"></path>
                    <path d="M73.013,15.36 L60.833,15.36 C56.69,15.36 53.333,12.002 53.333,7.86 C53.333,3.718 56.69,0.36 60.833,0.36 L73.013,0.36 C77.156,0.36 80.513,3.718 80.513,7.86 C80.513,12.002 77.155,15.36 73.013,15.36 Z" id="Path"></path>
                    <polygon id="Path" points="15.218 204.99 55.241 204.99 55.241 230.212 15.218 230.212"></polygon>
                </g>
                <polygon id="Path" fill="#303A78" points="103.218 373.99 123.52 373.99 123.52 399.212 103.218 399.212"></polygon>
                <polygon id="Path" fill="#32569D" points="433.933 373.99 473.956 373.99 473.956 399.212 433.933 399.212"></polygon>
                <polygon id="Path" fill="#303A78" points="433.933 373.99 454.235 373.99 454.235 399.212 433.933 399.212"></polygon>
                <polygon id="Path" fill="#32569D" points="183.264 373.99 223.287 373.99 223.287 399.212 183.264 399.212"></polygon>
                <polygon id="Path" fill="#303A78" points="183.264 373.99 203.566 373.99 203.566 399.212 183.264 399.212"></polygon>
                <path d="M504.5,398.212 L335.546,398.212 L335.546,384.684 C335.546,380.542 332.189,377.184 328.046,377.184 C323.903,377.184 320.546,380.542 320.546,384.684 L320.546,398.212 L286.826,398.212 L286.826,384.684 C286.826,380.542 283.469,377.184 279.326,377.184 C275.183,377.184 271.826,380.542 271.826,384.684 L271.826,398.212 L85.855,398.212 L85.855,384.684 C85.855,380.542 82.498,377.184 78.355,377.184 C74.212,377.184 70.855,380.542 70.855,384.684 L70.855,398.212 L39.505,398.212 C35.362,398.212 32.005,401.57 32.005,405.712 C32.005,409.854 35.362,413.212 39.505,413.212 L504.5,413.212 C508.643,413.212 512,409.854 512,405.712 C512,401.57 508.643,398.212 504.5,398.212 Z" id="Path" fill="#8BC727"></path>
            </g>
        </g>
    </g>
</svg>