<?xml version="1.0" encoding="UTF-8"?>
<svg width="51px" height="51px" viewBox="0 0 51 51" version="1.1" xmlns="http://www.w3.org/2000/svg" xmlns:xlink="http://www.w3.org/1999/xlink">
    <!-- Generator: Sketch 52.6 (67491) - http://www.bohemiancoding.com/sketch -->
    <title>favicon</title>
    <desc>Created with Sketch.</desc>
    <g id="Page-1" stroke="none" stroke-width="1" fill="none" fill-rule="evenodd">
        <g id="favicon" transform="translate(3.000000, 3.000000)">
            <g>
                <circle id="Oval" stroke="#BFE4F9" stroke-width="4.5" cx="22.5" cy="22.5" r="22.5"></circle>
                <g id="cow" transform="translate(5.000000, 5.000000)">
                    <g>
                        <g id="favicon">
                            <path d="M1.2,6.03448275 L8.4,6.03448275 L8.4,10.8620689 L5.04100703,10.8620689 C3.71498758,10.8620689 2.33101656,9.82671805 1.94952506,8.54717011 L1.2,6.03448275 Z" id="Path" fill="#FFFFFF"></path>
                            <path d="M0.564831529,5.43117836 L0.564831529,6.03477052 L8.47068471,6.03477052 L8.47068471,10.8624718 L5.08370822,10.8624718 C4.45103321,10.8645436 3.75825725,10.5917532 3.18568311,10.1345701 C2.61149327,9.67945877 2.16784526,9.04824238 1.98754261,8.39872467 L1.10573966,5.2578355 L0.564831529,5.43117836 L0.564831529,6.03477052 L0.564831529,5.43117836 L0.0239233992,5.60452115 L0.905726431,8.74541032 C1.17456486,9.69499754 1.76943448,10.5109519 2.51132515,11.1028038 C3.2548314,11.6922385 4.15634493,12.067239 5.08370822,12.0689655 L9.0355039,12.0689655 C9.18414054,12.0689655 9.32954589,12.0047389 9.43456096,11.892515 C9.53989911,11.7802911 9.59999997,11.6245588 9.59999997,11.4657188 L9.59999997,5.43117836 C9.59999997,5.27199304 9.53989911,5.116606 9.43456096,5.00438208 C9.32954589,4.89181279 9.18414054,4.82758621 9.0355039,4.82758621 L0.564831529,4.82758621 C0.385498181,4.82758621 0.218766656,4.91701999 0.111812885,5.07102582 C0.00485918112,5.22468627 -0.0274531134,5.42081918 0.0239233992,5.60452115 L0.564831529,5.43117836 Z" id="Path" fill="#54596E"></path>
                            <path d="M26.8521024,6.03448275 L34.7999994,6.03448275 L34.2269071,10.8620689 L30.6931094,10.8620689 C29.3670899,10.8620689 27.9831189,9.82671805 27.6016275,8.54717011 L26.8521024,6.03448275 Z" id="Path-Copy-2" fill="#FFFFFF" transform="translate(30.826051, 8.448276) scale(-1, 1) translate(-30.826051, -8.448276) "></path>
                            <path d="M9.59999997,2.55152462 C9.59999997,1.80907873 10.1325704,1.20689655 10.8,1.20689655 C11.4627604,1.20689655 12,1.80846493 12,2.55152462 L12,6.03448275 L9.59999997,6.03448275 L9.59999997,2.55152462 Z" id="Path" fill="#999999"></path>
                            <path d="M8.91441211,1.92370227 L9.42852965,1.92370227 C9.43000105,1.46349571 9.76960696,1.09777911 10.2001473,1.09715122 C10.6250962,1.09777911 10.9705879,1.46569317 10.9714707,1.92370227 L10.9714707,4.93733291 L9.42852965,4.93733291 L9.42852965,1.92370227 L8.40000033,1.92370227 L8.40000033,5.48606482 C8.40000033,5.63046796 8.45473747,5.77173186 8.55067472,5.87375579 C8.64631762,5.9760937 8.77874632,6.03448275 8.91441211,6.03448275 L11.4858825,6.03448275 C11.621254,6.03448275 11.7536827,5.9760937 11.8493256,5.87406977 C11.9452629,5.77173186 12,5.63046796 12,5.48606482 L12,1.92370227 C12,0.861711367 11.1954223,0.000315275095 10.2001473,1.35925466e-06 C9.70280403,-0.000626488499 9.24813231,0.216292138 8.9244178,0.564429241 C8.59982049,0.911624645 8.39970605,1.39600292 8.40000033,1.92370227 L8.91441211,1.92370227 Z" id="Path" fill="#54596E"></path>
                            <path d="M24,2.55152462 C24,1.80907873 24.5328451,1.20689655 25.2,1.20689655 C25.8627604,1.20689655 26.4,1.80846493 26.4,2.55152462 L26.4,6.03448275 L24,6.03448275 L24,2.55152462 Z" id="Path" fill="#999999"></path>
                            <path d="M23.3141178,1.92370227 L23.8285296,1.92370227 C23.8297068,1.46349571 24.1696071,1.09777911 24.5998531,1.09715122 C25.0250962,1.09777911 25.3705878,1.46569317 25.3714707,1.92370227 L25.3714707,4.93733291 L23.8285296,4.93733291 L23.8285296,1.92370227 L22.8000003,1.92370227 L22.8000003,5.48606482 C22.8000003,5.63046796 22.8547376,5.77173186 22.9506747,5.87375579 C23.0463177,5.9760937 23.1787463,6.03448275 23.3141178,6.03448275 L25.8855883,6.03448275 C26.0209597,6.03448275 26.1533884,5.9760937 26.2493256,5.87406977 C26.3449685,5.77173186 26.4,5.63046796 26.4,5.48606482 L26.4,1.92370227 C26.4,0.861711367 25.595128,0.000315275095 24.5998531,1.35925466e-06 C24.1025099,-0.000626488499 23.6478381,0.216292138 23.3244179,0.564429241 C22.9998205,0.911624645 22.7997061,1.39600292 22.8000003,1.92370227 L23.3141178,1.92370227 Z" id="Path" fill="#54596E"></path>
                            <path d="M28.5335052,18.0229061 L27.1428884,4.82758621 L8.85711176,4.82758621 L7.33798365,17.9127503 C6.5823433,18.0206451 6,18.6605389 6,19.4411509 L5.57255252,26.4123871 C5.57255252,30.488664 8.80976659,34.2523642 12.911347,34.2523642 L22.656273,34.2523642 C26.7581803,34.2523642 30,30.488664 30,26.4123871 L29.8234221,19.5565601 C29.8234221,18.774323 28.897701,18.6251933 28.5335052,18.0229061 Z" id="Path" fill="#FFFFFF"></path>
                            <path d="M28.0864451,18.5135651 L28.6556941,18.4484154 L27.1327811,5.33151839 C27.0993537,5.0448601 26.8542193,4.82758621 26.5638598,4.82758621 L8.23646795,4.82758621 C7.94610833,4.82758621 7.70064635,5.0448601 7.66754669,5.3318442 L6.14496131,18.4474382 L6.71388256,18.5129136 L6.6322804,17.9493694 C5.59963587,18.0962819 4.80098318,18.9731956 4.8,20.0449067 L4.8,27.0325282 C4.8003277,31.432733 8.38852985,34.9993485 12.8160219,35 L21.9839782,35 C26.4114701,34.9996743 29.9996723,31.4330587 30,27.0325282 L30,20.0523988 C29.9990169,18.9800363 29.2026582,18.1014937 28.1703413,17.9503467 L28.0864451,18.5135651 L28.6556941,18.4484154 L28.0864451,18.5135651 L28.0025489,19.0767835 C28.4856076,19.1487738 28.8559308,19.5566104 28.85462,20.0523988 L28.85462,27.0325282 C28.85462,28.9199126 28.0867728,30.6235748 26.8424215,31.8610917 C25.5974147,33.0976314 23.8834411,33.8608591 21.9843059,33.8611848 L12.8160219,33.8611848 C10.9168866,33.8608591 9.20291308,33.0976314 7.95790623,31.8610917 C6.71355487,30.6235748 5.94570778,28.9199126 5.94538009,27.0325282 L5.94538009,20.0449067 C5.94439691,19.5517241 6.31373694,19.1461678 6.79548473,19.0761319 C7.05241691,19.0396482 7.25330909,18.8341011 7.28313152,18.5780632 L8.74672737,5.96640142 L26.0532727,5.96640142 L27.5175239,18.5790404 C27.5473464,18.8350784 27.7459444,19.0389966 28.0025489,19.0767835 L28.0864451,18.5135651 Z" id="Path" fill="#54596E"></path>
                            <path d="M26.7006686,5.43117836 L26.7006686,6.03477052 L34.6065217,6.03477052 L34.6065217,10.8624718 L31.2195452,10.8624718 C30.5868703,10.8645436 29.8940943,10.5917532 29.3215201,10.1345701 C28.7473303,9.67945877 28.3036823,9.04824238 28.1233796,8.39872467 L27.2415767,5.2578355 L26.7006686,5.43117836 L26.7006686,6.03477052 L26.7006686,5.43117836 L26.1597604,5.60452115 L27.0415634,8.74541032 C27.3104019,9.69499754 27.9052715,10.5109519 28.6471622,11.1028038 C29.3906684,11.6922385 30.2921819,12.067239 31.2195452,12.0689655 L35.1713409,12.0689655 C35.3199776,12.0689655 35.030822,12.3141509 35.135837,12.201927 C35.2411752,12.0897031 35.1713409,11.5361111 35.1713409,11.377271 L35.735837,5.43117836 C35.735837,5.27199304 36.0855587,5.09583857 35.9802206,4.98361466 C35.8752055,4.87104536 35.7813734,4.82758621 35.6327368,4.82758621 L26.7006686,4.82758621 C26.5213352,4.82758621 26.3546037,4.91701999 26.24765,5.07102582 C26.1406962,5.22468627 26.108384,5.42081918 26.1597604,5.60452115 L26.7006686,5.43117836 Z" id="Path-Copy" fill="#54596E" transform="translate(31.067918, 8.529459) scale(-1, 1) translate(-31.067918, -8.529459) "></path>
                            <g id="Group" transform="translate(8.400000, 13.275862)">
                                <path d="M15.8237125,16.8139661 L3.39785408,16.8139661 C1.54731762,16.8139661 0.0473176172,15.268388 0.0473176172,13.3619539 L0.0473176172,8.71759119 C0.0473176172,7.74712738 0.811158798,6.96007649 1.7533262,6.96007649 L17.4679185,6.96007649 C18.4100858,6.96007649 19.173927,7.74712738 19.173927,8.71759119 L19.173927,13.3619539 C19.173927,15.268388 17.6739271,16.8139661 15.8237125,16.8139661 Z" id="Path" fill="#FF927D"></path>
                                <path d="M16.9236051,11.0177166 C16.9236051,12.2979594 15.9160944,13.3360837 14.6736051,13.3360837 C13.430794,13.3360837 12.4232833,12.2979594 12.4232833,11.0177166 C12.4232833,9.73714208 13.430794,8.69901771 14.6736051,8.69901771 C15.9160944,8.69901771 16.9236051,9.73714208 16.9236051,11.0177166 Z" id="Path" fill="#54596E"></path>
                                <path d="M6.7979614,11.0177166 C6.7979614,12.2979594 5.79045062,13.3360837 4.54763948,13.3360837 C3.30515021,13.3360837 2.29763944,12.2979594 2.29763944,11.0177166 C2.29763944,9.73714208 3.30515021,8.69901771 4.54763948,8.69901771 C5.79045062,8.69901771 6.7979614,9.73714208 6.7979614,11.0177166 Z" id="Path" fill="#54596E"></path>
                                <path d="M7.36030039,1.16382692 C7.36030039,1.80394838 6.85686699,2.32301053 6.23530045,2.32301053 C5.61405577,2.32301053 5.11030043,1.80394838 5.11030043,1.16382692 C5.11030043,0.523705564 5.61405577,0.00464341016 6.23530045,0.00464341016 C6.85686699,0.00464341016 7.36030039,0.523705564 7.36030039,1.16382692 Z" id="Path" fill="#54596E"></path>
                                <path d="M14.1109443,1.16382692 C14.1109443,1.80394838 13.6071889,2.32301053 12.9859443,2.32301053 C12.3643777,2.32301053 11.8606223,1.80394838 11.8606223,1.16382692 C11.8606223,0.523705564 12.3643777,0.00464341016 12.9859443,0.00464341016 C13.6071889,0.00464341016 14.1109443,0.523705564 14.1109443,1.16382692 Z" id="Path" fill="#54596E"></path>
                            </g>
                            <path d="M28.2377012,18.1034482 L11.3626207,18.1034482 C11.0520207,18.1034482 10.8,18.3734892 10.8,18.7067239 C10.8,19.0399586 11.0520207,19.3103448 11.3626207,19.3103448 L28.2377012,19.3103448 C28.5483013,19.3103448 28.8,19.0399586 28.8,18.7067239 C28.8,18.3734892 28.5483013,18.1034482 28.2377012,18.1034482" id="Path" fill="#54596E"></path>
                        </g>
                        <path d="M1.42105263,5.67567568 L0.473684211,5.67567568" id="Line" stroke="#54596E" stroke-width="0.87" stroke-linecap="round"></path>
                        <path d="M35.0526323,6.14864865 L35.0526323,5.2027027" id="Line-Copy" stroke="#54596E" stroke-width="0.8" stroke-linecap="round" transform="translate(35.052632, 5.675676) scale(-1, 1) translate(-35.052632, -5.675676) "></path>
                        <path d="M6.15789474,18.4459459 L7.00524681,18.0229061" id="Line-2" stroke="#54596E" stroke-width="0.75" stroke-linecap="round"></path>
                        <path d="M27.9473684,18.4459459 L27.9473684,17.5" id="Line-3" stroke="#54596E" stroke-width="1.05" stroke-linecap="round"></path>
                        <path d="M28.6578947,18.4459459 L27.9473684,17.5" id="Line-4" stroke="#54596E" stroke-width="0.4" stroke-linecap="round"></path>
                    </g>
                </g>
            </g>
        </g>
    </g>
</svg>