<?xml version="1.0" encoding="UTF-8"?>
<svg width="1440px" height="1024px" viewBox="0 0 1440 1024" version="1.1" xmlns="http://www.w3.org/2000/svg" xmlns:xlink="http://www.w3.org/1999/xlink">
    <!-- Generator: Sketch 52.6 (67491) - http://www.bohemiancoding.com/sketch -->
    <title>Homepage</title>
    <desc>Created with Sketch.</desc>
    <g id="Homepage" stroke="none" stroke-width="1" fill="none" fill-rule="evenodd">
        <path d="M90.8237898,445.788677 C79.6140425,424.527793 75.8274129,399.647578 63.368066,379.098352 C48.721822,354.942271 21.8285438,357.080721 -2.06519122,364.78789 C-23.7035545,371.767566 -42.2531001,386.515768 -49.4605141,407.121285 C-60.0355191,437.35452 -25.2196692,456.580917 -2.06519122,465.870981 C13.0303846,471.927644 23.8050395,491.103453 16.1851171,503.997378 C5.83671369,521.508256 -11.6518984,537.097399 -33.0292131,546.993926 C-49.3526498,554.550784 -96.8430903,579.369713 -60.181356,617.555164 C-23.5196218,655.740615 15.7323588,583.771953 34.3232329,604.279325 C51.0467396,622.726826 55.1428494,675.443861 76.8095905,683.187426 C93.5496121,689.170211 115.340514,669.340248 114.678035,642.906016 C114.365426,630.43231 131.529513,620.156538 140.292469,605.957813 C149.048051,591.771038 146.69568,574.499744 147.270985,567.405452 C150.155044,531.841102 113.234657,488.294079 90.8237898,445.788677 Z" id="Path-6" stroke="#000000" fill="#000000" transform="translate(36.842658, 521.898973) rotate(265.905246) translate(-36.842658, -521.898973) "></path>
        <path d="M362.79447,884.501927 C275.332931,802.972994 504.298221,764.609541 375.07849,657.347151 C360.397349,645.160666 328.689504,633.382047 309.85941,629.668127 C178.622897,603.783929 160.704312,658.936844 144.383094,697.862911 C134.278968,721.961229 130.726557,748.444517 88.4576046,748.444517 C11.7413143,748.444517 21.5403282,602.650713 -54.805122,689.84507 C-62.0113694,698.075346 -66.3303486,738.569731 -66.3303486,786.585876 L-69.508962,838.280379 C-92.7013395,895.618771 -151.842147,876.179806 -151.842147,950.926995 C-151.842147,987.241243 -115.825202,1033.24815 -102.376657,1064.83758 C-95.7898743,1080.30935 -90.9791321,1151.94801 -88.7666125,1162.47946 C-86.5540928,1173.01092 -72.1780232,1206.87109 -58.5237542,1222.73986 C-42.1758027,1241.73918 -12.7727805,1274.78077 11.6129727,1280.04619 C78.5148165,1294.49178 116.462951,1284.06188 164.311214,1234.42468 C179.549093,1218.6171 186.759295,1194.08894 197.196763,1169.79321 C202.965444,1156.36521 215.065385,1149.69213 225.936779,1142.25096 L260.287238,1142.25096 C303.493919,1149.68721 319.793665,1151.92641 347.586816,1167.62103 C382.042197,1187.07777 413.23036,1195.1091 481.469024,1172.66884 C574.768752,1141.98725 575.408116,1016.56808 521.130233,966.014724 C480.307318,927.993059 463.892147,936.15189 427.365525,919.642007 C411.145118,912.78156 398.803483,907.314393 390.340622,903.240508 C384.181511,900.275611 374.99946,894.029418 362.79447,884.501927 Z" id="Path" stroke="#000000" fill="#000000" transform="translate(202.921584, 954.512392) rotate(4.000241) translate(-202.921584, -954.512392) "></path>
        <path d="M125.271644,145.506992 C131.047232,137.707652 136.074765,132.60268 140.796151,125.620952 C149.554073,112.670218 159.093914,102.807412 163.026578,93.2163872 C169.934196,76.3700097 165.291585,63.0734927 149.871351,54.7592305 C140.360645,49.6312603 122.854188,41.9869217 103.077288,41.9869217 C87.952768,41.9869217 81.7247673,62.4684263 78.6981231,89.9900568 C75.7308607,116.971722 63.6813105,143.097815 35.3719281,143.097815 C20.4038513,143.097815 2.57021286,134.228584 -11.8590584,138.19911 C-28.9415091,142.899714 -41.2432972,149.238024 -51.3665494,163.785275 C-56.9669616,171.833144 -55.7468397,186.19931 -51.3665494,194.971911 C-44.943177,207.836283 -33.8311691,216.171971 -23.7518751,224.360684 C2.92055443,246.030146 37.058397,253.900001 68.2800906,246.065464 C85.1831154,241.823945 104.071828,233.394888 116.475729,222.574809 C124.615231,215.474619 136.835671,207.426701 136.835671,199.051159 C136.835671,196.100314 136.743026,192.024838 134.537693,187.385227 C130.483509,178.855977 120.754505,169.317689 120.209592,161.657067 L125.271644,145.506992 Z" id="Path-2" stroke="#000000" fill="#000000" transform="translate(55.511343, 145.506992) rotate(171.639088) translate(-55.511343, -145.506992) "></path>
        <path d="M1294.59738,90.1378122 C1294.5697,90.1738419 1281.22362,109.07674 1275.4219,127.188824 C1270.3195,143.117707 1270.33202,162.702382 1277.9982,168.150045 C1308.56416,189.870514 1343.80986,145.419711 1354.95697,197.842775 C1359.16756,217.644513 1338.83615,250.954061 1372.32522,265.136569 C1405.81429,279.319076 1392.20503,237.399175 1410.82802,206.053304 C1422.65478,186.146719 1462.37732,148.962978 1470.27361,127.188824 C1472.20948,121.850636 1479.07198,94.3706642 1462.20593,77.982393 C1450.27691,66.3912882 1437.20624,68.082004 1417.41466,54.4758136 C1399.85024,42.4007347 1385.98022,23.0953763 1366.14849,23.8402115 C1338.56982,24.8760041 1314.67293,64.0068182 1294.59738,90.1378122 Z" id="Path-3" stroke="#000000" fill="#000000" transform="translate(1372.585073, 145.898706) rotate(343.274403) translate(-1372.585073, -145.898706) "></path>
        <path d="M994.532673,663.515566 C1005.80368,695.222014 1048.98144,760.293145 1051.57508,797.090935 C1054.85909,843.683398 1016.70547,874.984973 1015.48542,888.376345 C1009.94204,949.221058 1030.67832,924.070275 1061.94929,956.151905 C1065.91863,960.224146 1075.25836,981.769873 1093.84211,990.986944 C1116.89504,1002.42061 1150.57678,1000.1707 1163.45408,984.44391 C1202.97602,936.176562 1191.68617,932.598341 1226.11637,932.32761 C1265.60276,932.017121 1293.40106,980.54055 1321.62403,995.362941 C1342.51519,1006.33475 1408.6246,1003.94585 1429.1359,963.36313 C1449.58566,922.902182 1425.47138,918.038512 1422.89828,896.46277 C1420.70271,878.05267 1428.37794,852.131016 1429.1359,843.046773 C1429.15065,842.870043 1460.8532,797.090935 1446.73799,768.691495 C1424.21131,723.368371 1387.64774,714.254226 1355.92178,716.900119 C1340.77563,718.163283 1320.34305,739.056855 1292.48194,732.354991 C1269.48869,726.824067 1270.16198,702.486461 1249.0989,691.731581 C1184.03566,658.510057 1173.50458,734.207706 1117.16312,657.863454" id="Path-4" stroke="#000000" fill="#000000" transform="translate(1222.445908, 829.420856) rotate(199.727844) translate(-1222.445908, -829.420856) "></path>
        <path d="M951.363946,1035.988 C946.715092,1021.45437 931.808776,1020.6932 936.561999,1002.18323 C939.953517,988.976005 946.196108,983.2691 953.16923,981.040737 C961.239179,978.461867 970.364028,980.037577 978.406394,971.954226 C983.183996,967.152278 987.965994,960.175337 990.509013,952.734484 C991.239089,950.598287 993.06876,940.451513 1001.06577,936.020401 C1007.97884,932.189894 1017.56036,938.469273 1026.04262,936.020401 C1029.99969,934.877975 1035.51792,928.004867 1042.93953,926.859023 C1050.36114,925.71318 1047.785,935.854901 1050.36114,943.457887 C1052.00339,948.304697 1055.09012,950.86058 1054.7652,955.392333 C1054.26575,962.358511 1042.2599,965.17444 1033.16977,971.262778 C1026.25476,975.894269 1022.60313,984.304757 1024.16975,994.546787 C1025.60852,1003.95297 1026.06468,1012.22763 1026.93974,1021.71797 C1027.45378,1027.29285 1027.7086,1031.77122 1026.93974,1037.31023" id="Path-5" stroke="#000000" fill="#000000" transform="translate(995.213591, 982.040056) scale(-1, 1) rotate(1.726557) translate(-995.213591, -982.040056) "></path>
        <path d="M1498.07441,418.658493 C1448.08614,372.051659 1578.95029,350.120805 1505.09529,288.803182 C1496.70435,281.836655 1478.58186,275.103289 1467.8196,272.980189 C1392.81192,258.183227 1382.57063,289.711946 1373.2423,311.964424 C1367.46733,325.740469 1365.43697,340.879907 1341.27832,340.879907 C1297.43145,340.879907 1303.03203,257.535413 1259.39711,307.380944 C1255.27841,312.085864 1252.80991,335.234886 1252.80991,362.683798 L1250.99319,392.23548 C1237.73768,425.013549 1203.936,413.901069 1203.936,456.631051 C1203.936,477.390456 1224.52134,503.690765 1232.2078,521.749185 C1235.97244,530.593777 1238.722,571.546733 1239.98656,577.567147 C1241.25112,583.587562 1249.4677,602.944069 1257.27174,612.015609 C1266.61534,622.876761 1283.42052,641.765317 1297.35809,644.77535 C1335.59556,653.033317 1357.28466,647.070959 1384.63214,618.695355 C1393.34128,609.658789 1397.46224,595.637022 1403.42774,581.748122 C1406.7248,574.07187 1413.64047,570.257142 1419.85397,566.003317 L1439.48683,566.003317 C1464.18143,570.254325 1473.49748,571.534385 1489.38254,580.506372 C1509.07537,591.629014 1526.90084,596.220209 1565.90236,583.392007 C1619.22743,565.852569 1619.59286,494.15544 1588.57056,465.256103 C1565.23839,443.520636 1555.85637,448.184714 1534.97973,438.746674 C1525.70903,434.82483 1518.65522,431.699469 1513.8183,429.370592 C1510.29809,427.675679 1505.05013,424.104979 1498.07441,418.658493 Z" id="Path" stroke="#000000" fill="#000000" transform="translate(1406.699733, 458.680680) rotate(383.003817) translate(-1406.699733, -458.680680) "></path>
        <path d="M644.125864,890.782533 C649.575619,876.312752 664.477978,875.185047 671.906091,862.166334 C686.852677,835.970545 667.879645,806.059956 708.02027,800.733578 C721.418502,798.955727 740.657164,824.413599 746.615728,826.626098 C773.537905,836.622683 779.820506,814.133142 796.480867,846.066091 C803.850883,860.192218 797.756547,873.380901 794.930801,881.676581 C791.279091,892.397081 777.089436,895.645709 767.804654,902.371682 C759.63569,908.289348 755.27454,909.628582 750.066972,920.771381 C746.615728,928.156119 748.299503,946.583559 750.066972,950.88047 C755.404363,963.856252 766.183676,963.649436 770.319988,977.193161 C771.643866,981.527999 765.526074,991.309105 762.404085,994.174277 C754.712848,1001.23283 744.665447,1001.81421 737.054642,1006.96314 C730.140667,1011.64065 731.588969,1017.10824 723.594906,1021.70695 C720.651231,1023.40034 710.6251,1021.66644 708.02027,1019.3521 C697.496994,1010.00236 692.359223,994.939608 679.400423,991.516797 C656.270401,985.40746 621.897812,994.174277 598.120623,994.174277 C586.046552,994.174277 570.852583,952.760885 584.282765,944.623843 C598.552399,935.978196 621.898552,945.709824 633.455072,935.089613 C642.800104,926.501716 641.632595,897.402474 644.125864,890.782533 Z" id="Path-7" stroke="#000000" fill="#000000" transform="translate(689.512582, 911.515248) rotate(44.726230) translate(-689.512582, -911.515248) "></path>
        <path d="M548.581173,-8.81257783 C485.773095,-67.2240652 650.198167,-94.7096007 557.402601,-171.557849 C546.859747,-180.288869 524.089638,-188.727673 510.567329,-191.388514 C416.323468,-209.933274 403.455733,-170.418912 391.735103,-142.530291 C384.479105,-125.265027 381.92804,-106.291049 351.573765,-106.291049 C296.482089,-106.291049 303.518979,-210.745168 248.693612,-148.274682 C243.518645,-142.378092 240.41709,-113.365849 240.41709,-78.9646328 L238.134457,-41.9280536 C221.479495,-0.847903933 179.009165,-14.7749703 179.009165,38.77773 C179.009165,64.7951098 204.873735,97.7568021 214.531434,120.389088 C219.261549,131.473853 222.71625,182.799438 224.30511,190.344713 C225.89397,197.889987 236.217745,222.149142 246.02318,233.518336 C257.763007,247.130417 278.877972,270.803097 296.389924,274.575516 C344.433627,284.925073 371.685027,277.45256 406.04593,241.889938 C416.98859,230.564576 422.166396,212.991354 429.661774,195.584651 C433.804392,185.964146 442.49363,181.183217 450.300619,175.851977 L474.968449,175.851977 C505.996128,181.179687 517.701338,182.783963 537.660218,194.028389 C562.403395,207.968191 584.800308,213.722252 633.804012,197.644902 C700.804623,175.663048 701.263764,85.8063552 662.285609,49.5873489 C632.969765,22.3466878 621.181665,28.1920909 594.951085,16.3635685 C583.30285,11.4483937 574.440047,7.53143678 568.362678,4.61269757 C563.939683,2.48849436 557.345849,-1.98659744 548.581173,-8.81257783 Z" id="Path" stroke="#000000" fill="#000000" transform="translate(433.772896, 41.346491) rotate(202.270913) translate(-433.772896, -41.346491) "></path>
        <path d="M901.218674,69.656739 C909.924191,45.8554501 933.729434,44.0004915 945.59521,22.5860602 C969.471101,-20.5032942 939.163306,-69.7031102 1003.28452,-78.4644491 C1024.68705,-81.3888294 1055.41916,-39.5132718 1064.93746,-35.8739406 C1107.94333,-19.4305954 1117.97925,-56.4235575 1144.59275,-3.89716911 C1156.36572,19.3388447 1146.63054,41.0328597 1142.11665,54.6783917 C1136.28336,72.3125023 1113.6166,77.6561583 1098.78495,88.7196862 C1085.73573,98.4536317 1078.76917,100.656533 1070.45053,118.985281 C1064.93746,131.13241 1067.62715,161.443637 1070.45053,168.511609 C1078.97655,189.855424 1096.19558,189.515233 1102.80298,211.793255 C1104.91777,218.923614 1095.14512,235.012518 1090.15801,239.725428 C1077.87191,251.33601 1061.82205,252.292325 1049.66444,260.761784 C1038.61996,268.455795 1040.9335,277.449419 1028.16367,285.013817 C1023.4614,287.799276 1007.44551,284.947193 1003.28452,281.140337 C986.474485,265.760983 978.267337,240.984319 957.566764,235.354151 C920.618534,225.304925 865.711265,239.725428 827.729241,239.725428 C808.441946,239.725428 784.170881,171.604697 805.624447,158.220107 C828.418966,143.998914 865.712446,160.006433 884.172997,142.537288 C899.100886,128.411088 897.235891,80.5458543 901.218674,69.656739 Z" id="Path-7" stroke="#000000" fill="#000000" transform="translate(973.720072, 103.759903) rotate(44.726230) translate(-973.720072, -103.759903) "></path>
    </g>
</svg>