<?xml version="1.0" encoding="UTF-8"?>
<svg width="242px" height="213px" viewBox="0 0 242 213" version="1.1" xmlns="http://www.w3.org/2000/svg" xmlns:xlink="http://www.w3.org/1999/xlink">
    <!-- Generator: Sketch 52.6 (67491) - http://www.bohemiancoding.com/sketch -->
    <title>btn</title>
    <desc>Created with Sketch.</desc>
    <g id="btn" stroke="none" stroke-width="1" fill="none" fill-rule="evenodd">
        <path d="M154.307882,58.963349 C147.355473,45.7558073 145.006964,30.2998889 137.279539,17.5344378 C128.195777,2.5283613 111.516268,3.85679462 96.69711,8.64458994 C83.276758,12.9804568 71.7721248,22.1422351 67.302007,34.9426543 C60.7432721,53.7239393 82.3364469,65.6676314 96.69711,71.4387419 C106.059553,75.2012208 112.742113,87.1134873 108.016153,95.1233637 C101.597959,106.001353 90.7513282,115.685534 77.4928814,121.833388 C67.3689057,126.527808 37.9148097,141.945654 60.6528224,165.666961 C83.3908351,189.388268 107.735347,144.680384 119.265613,157.419834 C129.637716,168.879666 132.178169,201.628185 145.616121,206.43859 C155.998467,210.155175 169.513425,197.83654 169.102549,181.415246 C168.908665,173.666415 179.554022,167.282969 184.988904,158.462534 C190.419213,149.649521 188.960246,138.920365 189.317057,134.513297 C191.105782,112.420253 168.20735,85.368267 154.307882,58.963349 Z" id="Path-6" stroke="#000000" fill="#000000" transform="translate(120.828188, 106.244071) rotate(296.364707) translate(-120.828188, -106.244071) "></path>
        <text id="learn-more" font-family="Arial-Black, Arial Black" font-size="24" font-weight="700" fill="#FFFFFF">
            <tspan x="44.0390625" y="90">learn more</tspan>
        </text>
    </g>
</svg>